<?xml version="1.0" standalone="no"?>
<!DOCTYPE svg PUBLIC "-//W3C//DTD SVG 20010904//EN"
 "http://www.w3.org/TR/2001/REC-SVG-20010904/DTD/svg10.dtd">
<svg version="1.0" xmlns="http://www.w3.org/2000/svg"
 width="1024.000000pt" height="1024.000000pt" viewBox="0 0 1024.000000 1024.000000"
 preserveAspectRatio="xMidYMid meet">
<metadata>
Created by potrace 1.16, written by Peter Selinger 2001-2019
</metadata>
<g transform="translate(0.000000,1024.000000) scale(0.100000,-0.100000)"
fill="#000000" stroke="none">
<path d="M3575 9721 c-197 -68 -346 -131 -570 -241 -383 -188 -697 -392 -1030
-669 -132 -110 -447 -428 -561 -566 -411 -497 -701 -1025 -903 -1645 l-31 -94
0 -1248 0 -1249 25 -92 c66 -238 182 -548 291 -776 35 -74 64 -140 64 -148 0
-7 7 -16 15 -19 8 -4 13 -10 10 -14 -2 -4 9 -35 25 -69 17 -34 30 -68 30 -76
0 -8 3 -15 8 -15 4 0 16 -19 26 -43 30 -69 193 -342 288 -483 176 -261 506
-633 783 -884 149 -135 405 -329 605 -457 63 -40 156 -93 325 -183 44 -24 85
-46 90 -50 6 -4 64 -31 130 -60 66 -28 134 -58 150 -65 17 -8 71 -30 121 -50
l91 -35 1549 0 1549 0 85 36 c47 19 108 44 135 54 182 70 620 312 885 490 278
186 655 525 900 810 196 228 400 517 558 790 98 167 260 523 339 740 69 189
143 446 143 497 0 17 4 34 8 37 4 2 9 19 10 38 2 18 9 58 17 89 13 48 15 225
15 1172 l0 1114 -40 143 c-105 371 -293 794 -502 1134 -275 445 -670 909
-1015 1195 -53 43 -66 50 -82 41 -27 -14 -31 -13 -24 7 5 12 2 15 -10 10 -11
-4 -22 2 -33 18 -9 14 -22 21 -30 18 -8 -3 -14 1 -14 9 0 29 14 27 60 -12 26
-22 51 -40 55 -40 44 0 -337 276 -605 437 -117 71 -409 217 -573 287 -144 61
-411 156 -440 156 -18 -1 90 -41 263 -100 157 -53 566 -248 742 -355 9 -5 41
-25 72 -43 45 -27 53 -36 43 -47 -9 -10 -13 -10 -15 0 -2 6 -27 23 -57 35 -30
13 -55 26 -55 30 0 3 -16 12 -34 20 -19 7 -34 18 -33 23 1 5 -9 11 -23 13 -14
3 -26 9 -28 14 -2 6 -10 10 -18 10 -8 0 -23 9 -34 20 -11 11 -22 15 -25 10 -4
-6 -13 -4 -21 5 -9 8 -20 13 -25 10 -5 -4 -9 1 -9 9 0 9 -6 13 -14 10 -8 -3
-20 3 -27 13 -8 10 -20 18 -26 19 -7 1 -20 2 -28 3 -8 0 -15 9 -16 19 0 9 -3
12 -5 5 -4 -8 -12 -8 -32 2 -15 8 -44 21 -64 30 -21 9 -38 20 -38 25 0 6 -13
10 -30 10 -16 0 -30 5 -30 11 0 5 -5 7 -11 4 -5 -4 -18 -1 -27 7 -9 8 -36 20
-59 28 -24 7 -43 16 -43 19 0 4 -8 7 -17 8 -28 2 -93 27 -93 35 0 5 -16 8 -35
8 -19 0 -35 5 -35 10 0 6 -10 10 -22 10 -13 1 -34 7 -47 14 -14 8 -30 12 -37
9 -7 -2 -15 0 -18 6 -4 6 -29 13 -57 17 -27 4 -52 11 -55 15 -7 12 -2541 12
-2548 0 -3 -5 -23 -12 -43 -16 -21 -4 -51 -12 -68 -20 -16 -7 -49 -18 -72 -25
-23 -7 -40 -16 -38 -20 2 -4 -7 -5 -20 -2 -15 2 -25 0 -25 -7 0 -6 -13 -11
-28 -11 -15 0 -32 -4 -37 -8 -6 -5 -30 -15 -55 -22 -25 -8 -49 -17 -55 -20 -5
-4 -27 -13 -47 -19 -21 -7 -38 -17 -38 -23 0 -6 -3 -9 -6 -5 -4 3 -25 -3 -48
-15 -22 -11 -42 -20 -43 -20 -9 5 -433 -205 -443 -218 -3 -4 -21 -15 -40 -25
-19 -9 -43 -24 -52 -32 -9 -8 -21 -13 -26 -10 -4 3 -15 -3 -22 -14 -8 -10 -20
-19 -26 -19 -7 0 -19 -6 -26 -13 -7 -8 -25 -17 -40 -20 -53 -14 -36 11 40 57
42 26 84 51 92 56 91 58 544 290 567 290 3 0 29 11 57 24 54 25 95 41 291 111
161 57 153 53 130 53 -11 0 -69 -17 -130 -37z m4078 -516 c0 -6 -7 -11 -16
-13 -12 -3 -15 1 -11 13 7 17 25 17 27 0z m-2696 -11 c-3 -3 -12 -4 -19 -1 -8
3 -5 6 6 6 11 1 17 -2 13 -5z m180 0 c-3 -3 -12 -4 -19 -1 -8 3 -5 6 6 6 11 1
17 -2 13 -5z m50 0 c-3 -3 -12 -4 -19 -1 -8 3 -5 6 6 6 11 1 17 -2 13 -5z
m2602 -74 c62 -44 114 -80 116 -80 3 0 15 -9 27 -19 13 -11 34 -29 48 -40 19
-14 22 -23 14 -31 -9 -9 -17 -5 -33 16 -11 15 -21 23 -21 19 0 -4 -6 -2 -13 4
-8 6 -17 7 -22 3 -4 -4 -6 0 -3 8 6 20 -15 40 -42 40 -16 0 -20 4 -16 15 4 10
-1 15 -15 15 -11 0 -18 4 -15 9 3 5 -8 11 -24 15 -17 3 -30 12 -30 20 0 10 -6
13 -15 10 -9 -4 -15 0 -15 10 0 9 -6 16 -14 16 -7 0 -19 6 -26 14 -6 8 -18 12
-26 9 -14 -5 -19 8 -7 20 12 12 20 8 132 -73z m-2462 64 c-3 -3 -12 -4 -19 -1
-8 3 -5 6 6 6 11 1 17 -2 13 -5z m130 -10 c-3 -3 -12 -4 -19 -1 -8 3 -5 6 6 6
11 1 17 -2 13 -5z m-2962 -24 c0 -7 -15 -20 -32 -29 -18 -9 -33 -22 -33 -29 0
-7 -4 -11 -9 -8 -5 3 -28 -10 -52 -29 -24 -19 -49 -35 -56 -35 -6 0 -13 -4
-15 -9 -1 -5 -34 -32 -73 -62 -77 -58 -89 -68 -110 -86 -7 -7 -16 -13 -18 -13
-2 0 -21 -16 -41 -35 -21 -19 -42 -33 -47 -30 -5 4 -9 2 -9 -4 0 -6 -16 -25
-36 -43 -20 -18 -43 -39 -50 -45 -7 -7 -17 -13 -23 -13 -6 0 -11 -7 -11 -15 0
-8 -9 -15 -20 -15 -11 0 -24 -8 -27 -17 -8 -19 -63 -73 -75 -73 -5 0 -8 -6 -8
-12 0 -7 -13 -22 -30 -33 -16 -11 -34 -30 -41 -42 -7 -13 -20 -25 -31 -29 -10
-3 -18 -11 -18 -19 0 -7 -7 -16 -16 -19 -8 -3 -12 -10 -9 -16 3 -5 2 -10 -4
-10 -5 0 -12 6 -14 13 -3 6 -6 2 -6 -10 -1 -13 -5 -23 -11 -23 -5 0 -10 -6
-10 -14 0 -14 -27 -31 -44 -27 -5 1 -6 -5 -3 -14 5 -10 0 -15 -14 -15 -11 0
-17 -4 -14 -10 3 -5 1 -15 -5 -22 -6 -7 -17 -22 -25 -33 -12 -18 -14 -18 -20
-3 -7 17 -3 22 105 142 60 67 263 272 323 326 40 36 50 41 58 29 8 -11 9 -9 4
7 -6 24 18 50 36 38 7 -4 9 -3 6 4 -7 10 217 195 348 288 39 27 90 63 115 80
47 33 65 37 65 14z m2092 14 c-3 -3 -12 -4 -19 -1 -8 3 -5 6 6 6 11 1 17 -2
13 -5z m-150 -20 c-3 -3 -12 -4 -19 -1 -8 3 -5 6 6 6 11 1 17 -2 13 -5z m-60
-10 c-3 -3 -12 -4 -19 -1 -8 3 -5 6 6 6 11 1 17 -2 13 -5z m-90 -20 c-3 -3
-12 -4 -19 -1 -8 3 -5 6 6 6 11 1 17 -2 13 -5z m698 -65 c5 -16 10 -18 21 -8
11 9 19 8 39 -5 13 -9 37 -16 52 -16 21 0 24 -3 15 -12 -20 -20 -14 -33 7 -14
17 15 19 15 25 1 10 -27 7 -32 -19 -37 -13 -3 -22 -1 -19 3 3 5 0 9 -7 9 -7 0
-9 -10 -5 -30 4 -22 2 -30 -9 -30 -18 0 -20 -16 -2 -23 9 -4 8 -8 -3 -16 -12
-8 -7 -11 23 -11 24 0 40 5 43 15 4 8 15 15 25 15 10 0 19 5 19 10 0 6 -4 10
-9 10 -5 0 -11 9 -14 20 -5 20 8 29 15 10 4 -12 66 -16 96 -6 12 4 22 16 22
26 0 14 5 17 23 12 19 -5 20 -3 9 10 -17 21 1 35 57 42 51 5 71 0 71 -21 0
-13 3 -13 15 -3 8 7 25 10 38 6 13 -3 27 -3 31 1 14 15 56 14 56 -1 0 -9 7
-12 21 -9 12 3 24 2 28 -3 3 -5 18 -17 34 -27 23 -15 28 -16 33 -3 3 8 11 13
18 10 6 -2 30 -7 51 -9 66 -8 75 -11 88 -24 9 -9 9 -14 -3 -21 -8 -5 -13 -10
-10 -10 3 -1 39 -2 80 -4 42 -1 83 -6 90 -11 8 -5 25 -8 38 -6 13 1 32 -5 42
-14 13 -12 31 -16 59 -13 27 2 42 -1 45 -9 3 -7 11 -13 19 -13 7 0 23 -13 35
-30 22 -29 42 -39 42 -21 0 5 -9 13 -20 16 -34 11 -22 24 16 19 42 -5 56 -12
49 -24 -8 -13 25 -21 44 -10 21 11 52 -16 44 -37 -5 -15 13 -17 22 -3 3 6 24
-1 48 -17 23 -14 43 -26 45 -25 10 7 20 -1 18 -15 -1 -23 28 -28 48 -8 9 9 16
12 16 6 0 -6 3 -10 8 -10 4 1 15 1 25 0 15 -1 16 -4 7 -22 -9 -16 -14 -18 -26
-8 -15 13 -17 9 -8 -15 4 -9 18 -16 33 -16 20 0 23 2 11 10 -12 8 -12 10 4 16
20 8 37 -11 29 -33 -5 -13 16 -12 65 3 7 2 10 -1 7 -6 -3 -6 -1 -10 4 -10 24
0 9 -21 -19 -26 -35 -8 -42 -36 -7 -33 12 1 33 1 46 1 l23 -2 -22 -18 c-20
-16 -21 -20 -7 -25 8 -3 21 1 27 8 7 8 16 12 22 9 5 -3 4 -12 -3 -20 -24 -29
5 -13 33 18 15 17 28 26 28 19 0 -7 4 -10 9 -6 6 3 15 -3 20 -14 7 -12 18 -17
29 -14 13 3 21 -2 25 -16 3 -12 1 -19 -4 -15 -5 3 -9 -6 -9 -20 0 -31 12 -35
72 -23 40 8 52 7 66 -7 10 -9 24 -16 31 -16 7 0 9 -4 6 -10 -3 -5 2 -10 12
-10 10 0 26 -9 36 -20 10 -12 22 -18 27 -15 6 3 10 1 10 -4 0 -6 10 -11 23
-11 18 0 19 -2 7 -10 -13 -8 -11 -11 8 -16 21 -6 26 -15 23 -41 -1 -7 3 -13 8
-13 6 0 7 -8 4 -17 -5 -14 -4 -16 8 -7 22 17 75 10 71 -10 -2 -11 4 -16 23
-16 17 0 24 -4 19 -12 -5 -8 0 -9 14 -6 12 4 22 2 22 -4 0 -5 4 -7 8 -4 5 3
15 -6 22 -19 7 -13 17 -22 22 -19 4 3 8 0 8 -5 0 -6 11 -11 24 -11 19 0 24 -4
21 -20 -2 -12 2 -20 9 -20 8 0 16 -9 19 -20 3 -14 14 -20 32 -20 20 0 26 -4
21 -15 -3 -9 1 -18 9 -21 8 -4 15 -13 15 -21 0 -9 6 -13 15 -9 8 3 15 1 15 -5
0 -6 5 -7 10 -4 6 3 13 -2 17 -12 7 -19 63 -78 63 -67 0 4 9 -1 20 -11 11 -10
20 -24 20 -30 0 -7 7 -15 15 -19 8 -3 15 -12 15 -21 0 -8 5 -15 12 -15 6 0 8
-3 5 -7 -4 -4 4 -19 19 -34 22 -23 30 -40 33 -72 1 -4 12 -5 25 -1 14 3 27 1
31 -7 5 -8 4 -10 -3 -5 -7 4 -12 3 -12 -3 0 -5 6 -14 13 -18 8 -4 17 -16 20
-27 5 -12 14 -17 27 -13 23 6 26 -3 8 -21 -9 -9 -8 -12 4 -12 9 0 25 -19 37
-45 13 -27 28 -45 38 -45 13 0 14 -3 5 -12 -18 -18 -15 -25 16 -33 l27 -7 -22
-18 c-27 -21 -29 -30 -7 -30 8 0 13 4 9 9 -3 6 3 15 14 21 21 10 40 -3 21 -15
-15 -9 -2 -25 15 -19 16 6 24 -7 29 -47 5 -37 17 -59 32 -59 12 0 19 -19 15
-43 -1 -5 7 -6 17 -3 15 5 18 2 17 -16 -1 -13 2 -26 7 -29 5 -3 10 -15 11 -27
1 -13 10 -23 25 -27 19 -5 23 -11 20 -29 -3 -16 2 -29 14 -37 22 -16 23 -29 2
-29 -9 0 -14 -6 -11 -12 2 -7 10 -12 16 -11 6 2 11 -1 11 -6 0 -5 9 -13 20
-16 13 -4 20 -15 20 -31 0 -15 6 -24 15 -24 8 0 15 -7 15 -15 0 -8 5 -15 10
-15 6 0 5 -6 -2 -14 -7 -8 -16 -12 -20 -9 -5 2 -8 -1 -8 -7 0 -8 9 -10 23 -6
18 4 25 -1 36 -27 8 -18 19 -35 24 -39 6 -3 10 -23 9 -43 -1 -24 4 -38 14 -42
12 -5 12 -7 -3 -19 -10 -7 -13 -14 -7 -14 7 0 14 -9 17 -20 3 -11 13 -20 22
-20 11 0 15 -5 12 -15 -4 -8 -2 -17 4 -21 6 -3 8 -12 5 -19 -2 -7 2 -16 10
-19 8 -3 14 -14 14 -25 0 -11 6 -22 13 -24 7 -3 4 -6 -6 -6 -10 -1 -16 -5 -12
-11 3 -5 12 -7 20 -4 10 4 12 -2 9 -26 -3 -19 0 -38 8 -48 23 -29 41 -69 41
-96 0 -16 5 -26 14 -26 13 0 13 -3 3 -15 -11 -13 -10 -18 7 -30 15 -10 19 -22
16 -36 -4 -15 -3 -20 5 -15 7 4 12 1 12 -8 0 -9 -4 -16 -10 -16 -21 0 -9 -20
13 -21 l22 0 -22 -11 -21 -10 25 -24 c14 -12 22 -28 18 -33 -3 -6 0 -11 7 -12
10 0 10 -2 1 -6 -15 -6 -17 -43 -3 -43 16 0 12 -14 -11 -39 -12 -12 -19 -25
-16 -28 3 -3 14 5 24 16 22 26 37 28 21 2 -9 -15 -9 -25 0 -46 15 -32 16 -85
1 -85 -5 0 -8 -4 -4 -10 3 -5 11 -8 18 -6 7 1 9 1 5 -1 -11 -7 -10 -61 1 -65
6 -1 13 -23 16 -48 4 -25 8 -54 11 -65 12 -57 11 -76 -3 -91 -13 -12 -13 -20
-4 -41 9 -19 9 -29 0 -39 -11 -13 -4 -18 21 -16 8 1 6 -71 -3 -85 -5 -7 -1 -9
13 -6 27 7 26 -16 -2 -26 -14 -5 -18 -10 -10 -15 7 -4 10 -12 7 -17 -4 -5 -1
-9 5 -9 6 0 10 -8 8 -17 -2 -10 2 -17 7 -16 6 1 10 -11 9 -26 -1 -35 -37 -76
-56 -65 -11 6 -11 5 0 -8 8 -10 21 -14 35 -10 22 5 22 5 3 -16 -14 -17 -16
-22 -5 -22 10 -1 9 -4 -3 -14 -21 -16 -24 -46 -4 -46 7 0 16 -9 19 -21 6 -23
-1 -49 -13 -49 -5 0 -6 -9 -3 -21 4 -12 0 -25 -8 -30 -12 -8 -11 -12 5 -24 16
-12 17 -17 6 -30 -8 -9 -14 -36 -15 -60 0 -24 -4 -47 -8 -51 -4 -4 -7 -18 -7
-30 0 -13 -5 -26 -11 -29 -7 -5 -5 -13 5 -24 12 -13 13 -20 4 -29 -9 -9 -9
-12 0 -12 6 0 9 -7 6 -15 -4 -8 -9 -13 -13 -11 -3 2 -6 -8 -7 -22 -3 -84 -10
-142 -18 -142 -4 0 -5 -7 -2 -16 3 -9 3 -21 -1 -27 -4 -7 -13 -28 -20 -47 -9
-27 -9 -36 0 -42 7 -5 3 -8 -13 -8 -18 0 -21 -3 -11 -9 8 -6 11 -17 6 -32 -13
-46 -30 -79 -39 -79 -6 0 -5 -5 2 -12 14 -14 16 -52 2 -43 -5 3 -10 -3 -10
-14 0 -12 -7 -21 -15 -21 -8 0 -15 -7 -15 -15 0 -8 -6 -14 -12 -12 -7 1 -13
-6 -13 -15 0 -10 -8 -27 -18 -38 -9 -11 -17 -27 -17 -35 0 -8 -7 -18 -15 -22
-8 -5 -15 -23 -17 -41 -1 -17 -6 -33 -10 -33 -4 -1 -13 -2 -20 -3 -20 -2 -21
-63 -2 -70 10 -4 21 -2 25 5 5 8 11 8 25 -1 14 -8 15 -10 2 -6 -10 3 -18 -2
-21 -15 -3 -10 0 -19 6 -19 6 0 2 -6 -8 -14 -11 -8 -16 -19 -12 -30 4 -11 1
-19 -11 -23 -9 -4 -20 -11 -24 -17 -6 -7 -11 -6 -18 4 -9 13 -12 13 -21 -3
-12 -21 -27 -14 -40 20 -9 24 -11 24 -22 9 -7 -9 -21 -18 -32 -20 -11 -2 -21
-10 -23 -18 -2 -12 4 -14 25 -11 25 3 25 2 7 -6 -16 -7 -20 -16 -17 -33 4 -20
10 -23 54 -23 56 0 62 -8 19 -27 -30 -13 -44 -35 -15 -24 8 3 15 1 15 -4 0 -6
-12 -10 -27 -10 -21 0 -24 -3 -15 -12 19 -19 14 -26 -13 -20 -14 2 -25 10 -25
18 0 26 -38 11 -44 -18 -5 -26 -26 -40 -26 -18 0 6 -7 10 -15 10 -8 0 -15 -7
-15 -15 0 -8 -6 -12 -14 -9 -22 9 -13 61 27 144 71 152 79 172 145 363 8 26
19 47 24 47 4 0 5 7 2 15 -4 8 -3 15 0 15 4 0 11 -11 16 -25 5 -14 15 -25 22
-25 9 0 8 3 -2 10 -13 9 -13 10 0 10 13 0 13 1 0 10 -8 5 -11 10 -6 10 5 0 1
9 -10 21 -18 20 -18 21 -1 31 11 6 16 16 12 28 -3 10 -2 21 3 24 6 3 13 23 17
43 4 21 10 42 13 48 4 5 7 29 8 53 1 24 7 49 13 56 6 7 9 15 6 18 -3 3 6 65
19 139 13 74 29 175 35 224 9 79 14 128 26 300 2 22 3 61 4 87 1 40 4 45 20
41 21 -5 38 26 20 37 -6 4 -8 18 -5 31 l6 24 -11 -22 c-13 -25 -31 -31 -28
-10 2 6 0 46 -4 87 -4 41 -12 138 -17 215 -6 77 -15 156 -20 175 -4 19 -11 64
-15 100 -8 75 -10 89 -18 110 -7 18 -30 119 -32 140 -1 8 -15 60 -30 115 -15
55 -28 110 -29 123 -1 12 -4 22 -8 22 -5 0 -8 5 -8 11 0 23 -116 302 -186 449
-41 85 -107 210 -147 278 -68 116 -272 402 -347 487 -298 335 -536 542 -859
748 -69 44 -129 84 -132 89 -3 5 -9 9 -13 9 -3 -1 -79 34 -169 78 -366 179
-725 285 -1142 338 -201 25 -656 25 -850 0 -580 -77 -1099 -263 -1545 -555
-321 -210 -620 -478 -856 -767 -111 -136 -301 -414 -375 -550 -160 -292 -281
-603 -355 -911 -20 -88 -41 -161 -46 -162 -4 -2 -6 -7 -4 -11 3 -4 1 -36 -5
-72 -5 -35 -12 -91 -15 -124 -3 -33 -9 -64 -14 -69 -5 -5 -6 -15 -2 -24 4 -11
1 -14 -11 -9 -9 3 -17 2 -17 -2 0 -5 7 -11 15 -15 11 -4 15 -17 13 -45 -2 -27
-6 -36 -14 -30 -6 5 -14 6 -17 2 -4 -3 0 -11 7 -17 11 -9 16 -68 21 -276 3
-146 9 -290 11 -320 3 -30 6 -77 8 -105 2 -27 4 -50 5 -50 3 0 6 -16 14 -65 9
-53 47 -243 53 -262 4 -13 -2 -17 -28 -16 -18 1 -36 6 -40 12 -5 8 -11 7 -20
-2 -10 -10 -10 -15 2 -22 11 -7 4 -10 -24 -10 -38 0 -39 -1 -20 -16 17 -14 17
-15 1 -10 -11 3 -16 2 -12 -4 8 -13 65 -13 65 0 0 19 32 10 37 -10 3 -12 18
-23 36 -28 39 -10 48 -32 13 -32 -17 0 -26 5 -26 16 0 11 -6 13 -19 9 -14 -4
-21 0 -24 12 -3 12 -5 8 -6 -9 0 -16 -6 -28 -11 -28 -6 0 -2 -8 7 -18 16 -16
21 -16 46 -4 21 11 34 12 50 4 21 -10 21 -11 -5 -11 -30 -1 -41 -20 -22 -38
19 -19 26 -16 19 10 -6 18 -2 16 22 -11 16 -18 35 -56 42 -84 8 -28 20 -62 27
-77 8 -14 14 -34 14 -43 0 -9 5 -20 10 -23 6 -3 10 -13 10 -20 0 -8 14 -44 30
-80 17 -36 30 -69 30 -73 0 -5 10 -28 21 -52 12 -24 22 -54 23 -67 0 -13 6
-23 11 -23 13 0 40 -69 31 -77 -3 -3 2 -12 12 -19 16 -12 16 -13 -3 -14 -16
-1 -14 -4 8 -12 15 -5 27 -16 27 -23 0 -7 4 -15 9 -17 4 -1 23 -30 41 -63 18
-33 39 -70 47 -82 13 -19 12 -23 -4 -32 -13 -8 -14 -10 -3 -11 19 0 75 -63 91
-103 7 -18 21 -41 31 -51 10 -11 18 -23 18 -28 0 -4 15 -24 34 -43 19 -20 38
-46 42 -58 4 -12 20 -37 35 -55 16 -18 32 -44 35 -58 4 -13 19 -31 35 -40 17
-8 27 -20 23 -26 -4 -7 -3 -8 5 -4 14 9 355 -332 352 -351 -1 -7 4 -13 11 -13
20 0 139 -100 133 -111 -4 -5 3 -9 14 -9 29 0 63 -68 55 -109 -4 -18 -2 -37 5
-45 10 -12 8 -14 -13 -12 -17 2 -26 -2 -26 -10 0 -8 4 -14 9 -14 5 0 23 -3 41
-7 24 -4 31 -3 26 5 -4 7 -1 12 9 12 9 0 19 9 22 20 6 24 28 26 50 5 8 -8 19
-12 24 -9 6 3 13 -4 16 -16 5 -18 11 -21 35 -16 21 4 33 0 45 -14 10 -11 25
-20 35 -20 9 0 19 -4 22 -9 4 -5 42 -30 86 -55 44 -26 80 -52 80 -58 0 -6 3
-8 6 -5 4 4 19 0 33 -7 80 -43 152 -76 165 -76 8 0 16 -5 18 -10 3 -11 96 -45
422 -155 348 -119 630 -171 1021 -188 56 -3 69 -6 67 -18 -2 -12 5 -15 30 -11
18 2 39 10 47 16 17 13 283 16 292 2 8 -10 69 2 69 15 0 13 34 11 49 -3 10
-11 12 -9 9 7 -3 18 3 20 58 23 45 2 66 -1 77 -12 8 -8 21 -17 28 -18 8 -2 19
-10 26 -18 11 -13 12 -12 13 8 0 12 -4 22 -10 22 -5 0 -10 7 -10 15 0 8 6 15
14 15 8 0 20 2 28 3 7 2 10 2 6 0 -18 -10 -6 -22 15 -14 12 5 20 12 19 16 -6
14 22 25 61 23 34 -1 66 -18 35 -18 -9 0 -9 -3 2 -10 12 -7 12 -12 2 -22 -15
-15 -16 -48 0 -48 16 0 48 30 48 46 0 25 45 79 63 76 9 -2 17 -10 17 -18 0 -8
-4 -12 -10 -9 -5 3 -10 1 -10 -4 0 -16 19 -13 37 4 13 13 13 18 1 32 -14 18
-14 18 41 -5 11 -4 13 0 8 17 -7 29 19 46 153 92 59 20 118 42 129 49 12 6 56
20 98 30 71 19 78 19 95 3 17 -15 18 -15 18 1 0 9 4 15 10 11 5 -3 6 -13 3
-21 -3 -9 0 -20 8 -24 11 -7 10 -13 -5 -29 -10 -11 -16 -27 -13 -36 4 -9 1
-15 -8 -15 -8 0 -15 -4 -15 -10 0 -5 7 -10 15 -10 9 0 12 -6 9 -15 -4 -8 -19
-15 -35 -15 -22 0 -27 -3 -22 -17 5 -12 2 -15 -10 -10 -10 4 -17 1 -18 -6 0
-9 -2 -9 -6 1 -7 17 -33 15 -33 -3 0 -8 -7 -15 -15 -15 -8 0 -15 -4 -15 -10 0
-5 -13 -7 -30 -4 -24 5 -30 3 -30 -10 0 -16 -1 -16 -16 -2 -19 19 -36 12 -27
-11 5 -13 2 -15 -15 -11 -12 3 -26 1 -31 -6 -6 -7 -25 -11 -43 -10 -18 1 -36
-3 -40 -9 -5 -9 -10 -9 -19 0 -9 9 -15 8 -26 -3 -8 -8 -18 -12 -23 -9 -4 3
-11 -2 -14 -10 -4 -11 -16 -14 -41 -12 -32 4 -65 -15 -57 -32 1 -3 -8 -6 -20
-6 -13 0 -29 -4 -36 -8 -7 -5 -21 -5 -30 -1 -26 11 -53 12 -89 4 -28 -7 -36
-4 -53 18 -11 14 -23 22 -27 19 -3 -4 0 -13 7 -22 15 -18 4 -19 -30 -2 -14 7
-42 10 -65 7 -35 -5 -37 -7 -17 -13 12 -5 22 -11 22 -15 0 -4 -10 -13 -22 -21
-13 -7 -20 -10 -16 -6 4 4 0 14 -8 22 -13 14 -17 13 -33 -1 -23 -21 -51 -21
-51 0 0 12 -7 15 -24 12 -15 -3 -23 -1 -20 6 9 25 -15 40 -65 41 -28 1 -51 -3
-51 -7 0 -4 -8 -8 -17 -8 -17 -1 -17 -1 -1 -14 10 -7 15 -16 11 -19 -3 -4 0
-13 7 -22 7 -9 10 -18 7 -22 -6 -5 -16 -7 -65 -12 -7 0 -10 -6 -6 -12 5 -9 -1
-10 -20 -5 -16 4 -34 2 -41 -4 -8 -6 -21 -7 -36 -2 -18 7 -30 4 -51 -11 -22
-16 -30 -18 -42 -8 -12 10 -16 9 -24 -6 -9 -16 -14 -15 -60 10 -27 15 -52 24
-56 20 -3 -3 -6 0 -6 8 -1 10 -4 9 -14 -4 -9 -12 -16 -14 -21 -8 -8 14 -48 14
-62 0 -8 -8 -14 -5 -22 10 -7 12 -17 21 -23 21 -6 0 -5 -6 3 -16 13 -15 9 -16
-44 -12 -32 3 -60 1 -63 -4 -9 -14 -21 -9 -27 12 -5 18 -7 19 -37 4 -23 -12
-35 -13 -43 -5 -6 6 -21 11 -33 11 -13 0 -25 4 -29 9 -3 5 -18 6 -33 2 -15 -4
-38 -6 -52 -4 -71 8 -100 9 -100 1 0 -4 -4 -8 -10 -8 -5 0 -7 7 -4 15 5 12 0
14 -24 9 -17 -4 -32 -1 -36 5 -4 6 -20 11 -35 11 -16 0 -34 7 -42 16 -11 14
-13 14 -22 -1 -6 -12 -12 -13 -22 -5 -7 6 -19 10 -27 9 -29 -3 -49 2 -43 11 3
6 1 10 -4 10 -6 0 -11 -4 -11 -10 0 -16 -15 -12 -40 10 -15 13 -31 18 -46 14
-14 -4 -24 -2 -24 5 0 6 -7 8 -15 5 -9 -4 -15 0 -15 10 0 15 -11 20 -37 17 -7
-1 -13 3 -13 9 0 14 -27 13 -34 -2 -4 -9 -5 -8 -4 2 2 22 -13 51 -22 45 -5 -3
-11 -1 -14 4 -3 5 -14 7 -25 4 -11 -3 -21 2 -24 11 -4 9 -14 16 -24 16 -13 0
-14 -3 -5 -12 15 -15 15 -28 1 -28 -5 0 -8 4 -5 9 8 12 -10 18 -77 26 -37 5
-57 12 -57 20 0 8 -9 17 -20 20 -11 3 -20 13 -20 21 0 8 -7 14 -16 14 -10 0
-14 -6 -10 -15 4 -10 -1 -15 -14 -15 -14 0 -20 7 -20 23 0 16 -3 18 -9 8 -15
-24 -51 -4 -51 30 0 19 -5 29 -15 29 -8 0 -15 -8 -15 -17 0 -13 -3 -14 -12 -5
-8 8 -15 9 -25 1 -9 -8 -13 -8 -13 0 0 6 -7 11 -16 11 -20 0 -47 27 -40 39 3
5 -2 12 -11 15 -15 6 -15 8 -3 16 11 7 11 10 2 10 -7 0 -15 -6 -18 -14 -3 -8
-15 -11 -30 -8 -17 3 -21 7 -14 12 8 5 1 13 -20 24 -27 13 -36 14 -49 3 -14
-10 -14 -10 -4 3 7 9 8 21 4 29 -6 9 -11 10 -15 2 -4 -6 -12 -11 -17 -11 -6 0
-7 5 -4 10 3 6 -6 15 -20 20 -14 5 -24 14 -21 19 4 5 -8 12 -25 16 -25 6 -30
11 -26 27 5 16 2 19 -17 14 -22 -5 -56 21 -56 44 0 16 -20 12 -26 -5 -5 -13
-9 -13 -26 -1 -11 8 -27 12 -34 9 -8 -3 -14 -2 -14 1 0 4 11 11 25 16 14 5 25
17 25 27 0 13 -2 15 -8 5 -7 -9 -20 -2 -53 28 -24 22 -48 39 -54 39 -26 -3
-35 2 -35 20 0 10 -6 21 -14 24 -17 7 -30 -20 -13 -27 7 -2 -1 -5 -16 -5 -17
-1 -26 3 -22 9 4 6 2 17 -4 24 -7 8 -11 18 -10 22 4 23 -4 30 -38 32 -39 3
-66 26 -95 82 -7 14 -22 32 -33 41 -16 14 -17 19 -6 33 15 18 8 21 -17 7 -9
-5 -34 -12 -56 -15 -34 -6 -37 -4 -26 9 10 12 10 18 0 30 -10 12 -10 15 0 15
10 0 10 3 -1 16 -7 8 -21 13 -31 11 -10 -3 -18 -1 -18 4 0 5 5 9 11 9 8 0 8 5
-1 15 -7 8 -19 15 -27 15 -9 0 -13 6 -10 15 8 18 -13 32 -23 15 -6 -9 -12 -10
-26 -1 -18 10 -18 10 1 11 18 1 17 2 -5 15 -14 8 -21 14 -16 15 5 0 2 8 -6 18
-27 31 -28 40 -7 45 17 5 20 2 16 -14 -6 -23 -1 -24 19 -4 9 8 11 15 5 15 -6
0 -11 7 -11 16 0 16 -24 16 -87 1 -27 -7 -29 1 -5 19 15 12 13 13 -18 14 -31
1 -101 29 -74 30 21 0 23 26 3 26 -11 0 -19 -5 -19 -10 0 -6 -6 -4 -12 2 -10
10 -10 15 2 22 13 9 13 11 0 20 -8 5 -20 8 -27 5 -7 -2 -15 1 -19 7 -5 7 -2 8
6 3 9 -6 10 -2 5 16 -10 32 -25 50 -36 43 -5 -3 -9 0 -9 6 0 18 -24 37 -40 33
-12 -4 -13 -3 -1 5 16 12 6 33 -13 26 -8 -3 -16 5 -20 21 -4 14 -11 23 -16 20
-10 -6 -14 7 -11 33 1 6 -2 12 -8 12 -10 0 -9 19 2 37 8 13 -8 27 -22 19 -4
-3 -16 3 -26 14 -10 11 -14 20 -9 20 5 0 2 5 -6 11 -12 9 -11 10 8 6 12 -3 22
-4 22 -2 0 2 3 10 6 18 4 11 -1 13 -22 9 -24 -4 -26 -2 -21 17 4 16 2 21 -7
18 -7 -3 -19 -1 -27 4 -12 7 -12 12 -1 30 9 14 10 25 4 31 -6 6 -8 17 -5 24 3
8 0 14 -6 14 -6 0 -11 7 -11 16 0 8 -5 12 -10 9 -8 -5 -8 -11 0 -20 20 -25
-10 -28 -36 -4 -18 17 -21 25 -13 36 9 10 7 13 -7 13 -17 0 -17 1 1 14 17 12
17 13 -7 19 -16 4 -28 16 -32 31 -3 13 -17 34 -31 47 -26 25 -33 49 -14 49 5
0 7 5 4 10 -4 6 -12 4 -21 -5 -23 -22 -28 -18 -12 8 16 24 13 51 -4 41 -6 -4
-8 2 -3 16 6 19 4 21 -13 16 -16 -6 -19 -3 -14 19 3 19 1 24 -10 20 -16 -6
-42 40 -33 56 4 5 0 9 -8 9 -16 0 -30 27 -21 41 3 5 0 9 -6 9 -6 0 -8 11 -4
28 4 20 3 23 -5 12 -8 -12 -13 -12 -23 -2 -10 10 -10 14 -1 20 18 11 7 54 -19
74 -20 15 -21 20 -10 38 10 17 10 20 -4 20 -11 0 -14 8 -12 32 2 27 8 34 33
40 22 5 18 6 -15 3 -25 -2 -39 -2 -32 1 17 8 15 20 -7 41 -10 10 -24 39 -31
64 -10 35 -18 45 -29 41 -11 -4 -13 -1 -8 13 4 9 2 24 -4 31 -8 10 -5 15 16
20 l27 7 -27 17 c-19 12 -23 20 -15 25 9 6 9 10 -1 16 -10 6 -11 9 -1 9 20 0
14 38 -8 45 -11 4 -18 11 -15 16 4 5 -1 9 -9 9 -9 0 -16 5 -16 10 0 6 4 10 9
10 5 0 11 9 14 20 3 13 0 20 -10 20 -9 0 -13 6 -9 15 3 8 1 15 -4 15 -6 0 -10
7 -10 15 0 8 -5 15 -10 15 -6 0 -8 13 -5 30 4 22 1 30 -10 30 -11 0 -12 5 -5
24 5 13 6 26 4 29 -3 3 -1 15 6 26 8 16 8 21 -1 19 -8 -2 -14 10 -15 27 -3 36
-24 105 -37 123 -6 8 -5 12 2 12 7 0 9 5 4 13 -11 17 -11 30 0 45 7 8 4 12 -9
12 -15 0 -16 2 -5 9 8 5 11 16 6 30 -4 15 -1 29 9 40 16 17 15 19 -4 24 -24 6
-27 24 -3 29 15 3 15 4 0 20 -12 12 -16 28 -13 55 3 22 0 40 -6 44 -9 6 -9 11
0 21 6 8 9 35 7 61 -2 26 1 49 6 53 6 4 6 10 0 18 -13 16 -6 123 9 141 7 8 7
15 1 19 -12 8 -10 46 2 46 5 0 7 7 3 15 -3 8 0 15 7 15 9 0 9 2 0 8 -10 6 -9
14 3 37 8 15 11 31 7 34 -12 9 -8 93 5 118 7 12 11 28 10 35 -2 8 5 12 15 10
15 -3 17 1 12 20 -4 13 -13 26 -19 30 -8 5 -8 10 1 19 6 6 9 18 6 25 -4 10 0
12 11 8 9 -3 16 -11 16 -17 0 -6 3 -7 6 -4 4 4 -2 19 -12 34 -22 33 -20 52 9
76 l22 19 -23 -5 c-13 -3 -21 -3 -18 0 3 4 1 12 -5 19 -8 9 -5 11 11 7 16 -4
19 -2 14 11 -3 9 -2 16 4 16 18 0 21 53 4 67 -11 8 -12 12 -4 13 6 0 12 7 12
15 0 8 -6 15 -12 16 -10 0 -10 2 0 6 6 2 12 11 12 19 0 8 5 14 11 14 6 0 9 6
6 13 -6 17 12 49 23 42 6 -3 7 1 4 9 -3 9 -2 16 3 16 5 0 8 17 7 38 -1 20 3
43 9 50 5 6 7 12 4 12 -3 0 0 12 8 27 8 15 11 31 8 36 -6 10 14 54 40 81 9 11
17 26 17 33 0 7 4 13 8 13 4 0 8 8 9 18 5 55 9 72 17 72 4 0 6 7 3 15 -4 8 -2
17 4 20 5 4 6 11 3 17 -4 6 -1 14 6 18 7 4 13 20 13 35 0 18 6 29 18 32 10 3
16 9 13 14 -3 5 4 9 15 9 14 0 23 9 27 25 3 14 11 22 17 18 6 -4 7 -1 2 7 -10
16 14 31 40 25 11 -3 7 1 -10 9 -28 13 -46 56 -23 56 5 0 6 5 3 10 -3 6 -1 10
5 10 12 0 33 47 32 72 0 10 3 20 8 23 5 3 7 12 4 20 -4 9 4 19 20 26 14 7 26
19 26 26 0 8 -4 11 -10 8 -5 -3 -10 -1 -10 4 0 6 7 11 15 11 8 0 15 5 15 10 0
18 38 52 52 48 7 -3 18 8 26 25 10 25 10 33 -2 46 -17 19 -4 51 21 51 8 0 13
6 10 13 -6 15 44 67 63 67 7 0 10 8 7 20 -3 11 -1 18 3 15 5 -3 11 3 15 14 3
10 27 33 53 50 26 17 44 31 40 31 -4 0 0 9 9 20 10 11 23 20 30 20 6 0 17 15
24 34 7 19 15 35 18 34 19 -2 24 4 11 13 -13 9 -13 10 0 8 35 -4 50 2 50 19 0
10 14 28 30 41 17 12 28 26 25 31 -3 5 2 13 11 18 11 6 15 17 11 31 -3 11 -2
21 2 21 15 0 69 56 75 78 4 12 14 22 22 22 8 0 12 -4 9 -10 -12 -19 5 -28 29
-17 13 7 22 16 19 20 -3 5 7 20 22 33 24 21 26 24 9 25 -12 0 -4 7 21 19 22
10 33 19 25 19 -12 1 -13 3 -1 10 7 5 11 14 7 19 -7 12 47 72 64 72 5 0 10 5
10 10 0 6 12 10 26 10 17 0 28 6 31 19 3 11 13 21 24 24 13 4 17 10 12 23 -5
14 -2 16 20 12 21 -4 25 -2 17 7 -14 17 55 79 81 72 10 -3 17 -1 14 3 -3 5 5
10 17 12 13 2 23 10 23 18 0 15 32 50 46 50 4 0 10 9 14 19 5 17 38 35 58 32
4 -1 7 6 7 15 0 11 6 15 20 11 11 -3 18 -1 14 4 -3 5 4 9 15 9 12 0 21 5 21
10 0 6 11 10 25 10 18 0 23 -4 19 -15 -4 -10 0 -15 11 -15 9 0 14 4 11 8 -6
10 38 52 54 52 5 0 15 9 22 20 7 11 18 20 25 20 7 0 13 5 13 10 0 6 5 10 11
10 5 0 8 -3 6 -7 -2 -5 9 -19 26 -32 l30 -25 -5 32 c-2 18 0 32 5 32 5 0 7 11
5 25 -7 36 20 32 33 -5 7 -18 18 -30 29 -30 21 0 46 27 35 38 -4 4 -10 1 -12
-5 -5 -14 -43 -18 -43 -5 0 22 27 62 43 62 9 0 17 8 17 18 0 11 8 17 26 18 14
1 33 9 43 18 20 19 44 20 72 5 17 -9 21 -7 26 11 4 15 8 18 13 10 6 -9 13 -9
26 -1 11 6 15 11 10 11 -18 0 27 40 46 40 10 0 26 5 36 11 14 9 25 8 50 -5 29
-15 31 -15 25 0 -5 14 -2 16 22 10 24 -6 27 -5 16 7 -14 17 1 33 21 21 7 -4 8
-3 4 5 -10 15 22 27 37 12 16 -16 30 -14 23 4 -3 9 0 15 10 15 8 0 17 -7 20
-15 8 -20 34 -19 34 1 0 8 -4 13 -9 9 -5 -3 -12 -1 -16 5 -5 8 10 15 18 8 1
-2 23 10 49 25 29 17 61 27 86 27 21 0 42 3 46 8 4 4 22 7 39 7 22 0 31 4 29
14 -2 10 4 12 22 7 31 -8 56 2 56 21 0 12 7 14 28 9 49 -13 107 -11 121 2 7 7
20 11 27 8 8 -3 20 -9 28 -12 9 -3 17 3 21 16 5 15 13 20 26 17 10 -3 19 -1
19 4 0 5 8 9 18 9 10 0 23 5 30 12 9 9 18 8 38 -2 23 -13 27 -13 38 2 13 18
73 27 94 14 8 -5 16 1 21 16 6 13 10 18 10 13 1 -12 90 -9 141 4 19 5 38 9 42
10 4 1 10 -8 13 -20z m1200 -9 c3 -5 1 -10 -4 -10 -6 0 -11 5 -11 10 0 6 2 10
4 10 3 0 8 -4 11 -10z m30 -10 c3 -5 1 -10 -4 -10 -6 0 -11 5 -11 10 0 6 2 10
4 10 3 0 8 -4 11 -10z m-895 -20 c-12 -23 -40 -27 -40 -6 0 14 14 24 38 25 10
1 10 -4 2 -19z m-120 -15 c-6 -8 -9 -19 -5 -26 6 -8 2 -8 -14 0 -17 10 -19 14
-9 26 18 20 45 20 28 0z m1120 -1 c0 -2 -7 -4 -15 -4 -8 0 -15 4 -15 10 0 5 7
7 15 4 8 -4 15 -8 15 -10z m-1079 -27 c-13 -13 -31 0 -24 19 4 11 8 12 20 3 9
-8 10 -16 4 -22z m-93 -45 c2 -7 -5 -12 -17 -12 -14 0 -19 5 -14 15 6 17 25
15 31 -3z m1357 0 c-3 -3 -11 0 -18 7 -9 10 -8 11 6 5 10 -3 15 -9 12 -12z
m-1381 -28 c23 -9 20 -23 -4 -17 -11 3 -20 9 -20 14 0 11 3 11 24 3z m3036
-59 l24 -25 -25 4 c-13 2 -23 9 -21 15 1 6 -2 11 -8 11 -5 0 -10 5 -10 10 0
17 15 11 40 -15z m-4720 -5 c-8 -5 -19 -10 -25 -10 -5 0 -3 5 5 10 8 5 20 10
25 10 6 0 3 -5 -5 -10z m-65 -30 c-3 -5 -12 -10 -18 -10 -7 0 -6 4 3 10 19 12
23 12 15 0z m2079 -10 c144 -17 167 -20 255 -35 236 -42 505 -119 709 -204
112 -47 267 -122 270 -132 2 -5 11 -9 19 -9 16 0 97 -43 163 -85 99 -64 125
-81 145 -95 12 -8 41 -27 63 -43 43 -28 54 -47 27 -47 -8 0 -15 7 -15 15 0 9
-6 15 -13 13 -6 -2 -22 6 -34 17 -36 33 -53 46 -53 40 0 -3 -10 3 -22 15 -12
11 -27 20 -34 20 -6 0 -23 9 -36 20 -14 10 -28 16 -32 13 -3 -3 -6 2 -6 11 0
11 -5 16 -14 13 -8 -3 -22 2 -33 12 -10 10 -31 21 -46 25 -15 3 -27 11 -27 16
0 6 -9 10 -20 10 -11 0 -20 5 -20 10 0 6 -6 10 -14 10 -8 0 -22 7 -30 16 -9 8
-20 12 -26 9 -6 -3 -13 1 -16 9 -3 9 -11 13 -16 10 -6 -4 -13 -3 -17 2 -10 15
-144 75 -208 94 -24 7 -43 17 -43 22 0 4 -11 8 -24 8 -14 0 -28 5 -31 11 -4 6
-13 8 -21 5 -8 -3 -14 -1 -14 5 0 6 -6 9 -13 6 -7 -3 -21 1 -32 9 -10 8 -29
14 -41 14 -12 0 -35 7 -50 15 -16 8 -41 15 -56 15 -15 0 -30 5 -33 10 -4 6
-19 9 -33 8 -15 -1 -34 2 -42 7 -8 5 -21 10 -30 11 -20 3 -55 12 -55 14 0 1
-18 4 -85 13 -19 3 -42 8 -50 11 -8 3 -35 7 -60 10 -25 3 -60 9 -79 15 -24 7
-38 7 -47 0 -9 -7 -19 -7 -32 0 -11 6 -22 7 -26 4 -3 -3 -6 -2 -6 4 0 6 -19
11 -42 11 -355 7 -595 8 -603 4 -5 -3 -30 -7 -55 -9 -59 -3 -132 -13 -141 -19
-4 -2 -11 0 -14 6 -5 8 -11 7 -21 -1 -11 -9 -14 -8 -14 2 0 11 -2 11 -8 2 -4
-7 -26 -15 -47 -18 -22 -4 -51 -9 -65 -12 -14 -3 -50 -9 -80 -13 -30 -5 -84
-16 -120 -25 -36 -10 -72 -18 -80 -19 -16 -1 -101 -31 -137 -49 -13 -6 -26 -7
-30 -4 -3 4 -11 3 -17 -2 -16 -13 -132 -51 -156 -51 -11 0 -20 -4 -20 -8 0 -4
-20 -14 -45 -21 -24 -7 -49 -19 -55 -26 -6 -7 -22 -12 -37 -12 -15 0 -29 -6
-31 -12 -2 -6 -10 -11 -18 -11 -12 0 -292 -138 -304 -150 -3 -3 -26 -15 -52
-28 -27 -13 -48 -27 -48 -32 0 -4 -11 -11 -25 -14 -14 -4 -25 -11 -25 -16 0
-6 -9 -10 -21 -10 -11 0 -17 -4 -14 -10 3 -5 -1 -10 -9 -10 -16 0 -41 -17 -83
-57 -13 -13 -29 -23 -35 -23 -5 0 -32 -18 -58 -40 -26 -22 -50 -40 -53 -40 -4
0 -17 -10 -30 -22 -13 -13 -33 -30 -45 -38 -12 -8 -22 -20 -22 -28 0 -7 -4
-10 -10 -7 -12 8 -61 -25 -54 -36 3 -5 1 -9 -5 -9 -13 0 -78 -60 -66 -61 6 0
0 -4 -13 -10 -13 -5 -20 -13 -17 -19 3 -5 0 -10 -8 -10 -8 0 -49 -34 -91 -75
-42 -41 -81 -75 -86 -75 -6 0 -10 -5 -10 -11 0 -7 -11 -22 -25 -35 -14 -13
-25 -30 -25 -39 0 -8 -7 -15 -15 -15 -8 0 -15 -7 -15 -15 0 -8 -5 -15 -11 -15
-6 0 -19 -10 -29 -22 -10 -13 -22 -19 -27 -15 -4 5 2 17 15 27 12 10 22 21 22
23 0 21 290 308 426 422 160 135 208 170 364 272 47 30 97 64 112 74 15 11 32
19 37 19 6 0 27 12 48 26 49 33 358 184 377 184 8 0 17 4 20 9 3 4 38 19 78
31 40 13 78 26 83 31 12 8 205 68 315 97 79 21 323 68 400 77 81 9 254 25 310
29 91 6 449 -3 544 -14z m2754 -1 c-2 -6 5 -13 15 -14 27 -5 33 -14 14 -21 -9
-3 -24 3 -36 15 -25 25 -26 31 -6 31 8 0 14 -5 13 -11z m67 -67 c-6 -7 -34 11
-29 19 3 5 11 3 19 -4 7 -6 12 -13 10 -15z m69 -61 c-3 -3 -9 1 -14 9 -6 8
-10 11 -10 7 0 -4 -6 -2 -14 5 -8 7 -12 17 -9 21 3 5 16 -2 29 -14 13 -12 21
-25 18 -28z m114 -107 c-9 -8 -38 8 -32 17 3 5 -2 9 -10 9 -9 0 -16 7 -16 16
0 11 -5 14 -16 10 -12 -5 -15 -2 -10 10 4 11 2 15 -8 11 -19 -7 -28 3 -16 18
7 9 23 -1 61 -37 28 -27 49 -51 47 -54z m-1223 -4 c3 -5 1 -10 -4 -10 -6 0
-11 5 -11 10 0 6 2 10 4 10 3 0 8 -4 11 -10z m-3975 -4 c0 -3 -4 -8 -10 -11
-5 -3 -10 -1 -10 4 0 6 5 11 10 11 6 0 10 -2 10 -4z m-350 -10 c0 -2 -7 -7
-16 -10 -8 -3 -12 -2 -9 4 6 10 25 14 25 6z m5580 0 c0 -9 -30 -14 -35 -6 -4
6 3 10 14 10 12 0 21 -2 21 -4z m20 -26 c0 -5 -7 -10 -16 -10 -8 0 -12 5 -9
10 3 6 10 10 16 10 5 0 9 -4 9 -10z m-5650 -4 c0 -3 -4 -8 -10 -11 -5 -3 -10
-1 -10 4 0 6 5 11 10 11 6 0 10 -2 10 -4z m5720 -84 c-11 -4 -50 34 -50 48 0
6 -5 10 -11 10 -5 0 -7 5 -4 11 4 6 21 -6 40 -28 18 -21 29 -39 25 -41z
m-5790 34 c0 -2 -7 -7 -16 -10 -8 -3 -12 -2 -9 4 6 10 25 14 25 6z m5824 -62
c5 -14 4 -15 -9 -4 -17 14 -19 20 -6 20 5 0 12 -7 15 -16z m36 -34 c0 -5 -7
-10 -16 -10 -8 0 -12 5 -9 10 3 6 10 10 16 10 5 0 9 -4 9 -10z m44 -61 c-3 -5
-12 -9 -21 -9 -13 0 -13 3 -3 15 9 10 9 15 1 15 -6 0 -11 5 -11 12 0 6 8 3 20
-7 11 -10 17 -22 14 -26z m-1341 -28 c3 -13 1 -18 -9 -14 -7 2 -10 11 -7 19 7
19 10 18 16 -5z m1368 -9 c-7 -2 -18 1 -23 6 -8 8 -4 9 13 5 13 -4 18 -8 10
-11z m33 -28 c18 -7 22 -34 5 -34 -5 0 -8 4 -4 9 3 6 -3 14 -12 20 -20 12 -13
14 11 5z m-6259 -14 c-3 -5 -11 -10 -16 -10 -6 0 -7 5 -4 10 3 6 11 10 16 10
6 0 7 -4 4 -10z m5175 0 c0 -5 -2 -10 -4 -10 -3 0 -8 5 -11 10 -3 6 -1 10 4
10 6 0 11 -4 11 -10z m-6236 -15 c3 -8 0 -15 -7 -15 -7 0 -24 -17 -37 -39 -16
-25 -30 -37 -40 -33 -11 4 -12 2 -4 -7 8 -9 2 -22 -27 -53 -21 -23 -36 -45
-33 -50 3 -4 -2 -8 -11 -8 -11 0 -15 -5 -12 -14 8 -20 -4 -28 -19 -15 -11 9 5
36 78 130 50 65 94 119 98 119 4 0 10 -7 14 -15z m1025 -18 c-2 -1 -15 -11
-29 -22 l-25 -20 19 23 c11 12 24 22 29 22 6 0 8 -1 6 -3z m6358 -25 c9 -15 7
-18 -11 -19 -11 -1 -15 1 -8 4 10 4 9 10 -4 24 -13 15 -14 18 -3 14 8 -3 19
-13 26 -23z m-1587 -94 c0 -4 6 -8 13 -8 6 0 28 -14 47 -30 28 -23 33 -31 23
-41 -11 -11 -13 -10 -13 3 0 18 -26 31 -43 21 -7 -4 -6 1 2 10 12 15 11 17 -4
17 -16 0 -56 27 -96 65 -9 8 -21 15 -27 15 -13 0 -16 13 -6 23 7 7 104 -63
104 -75z m1620 52 c0 -5 -7 -10 -16 -10 -8 0 -12 5 -9 10 3 6 10 10 16 10 5 0
9 -4 9 -10z m-1012 -65 c-3 -3 -9 2 -12 12 -6 14 -5 15 5 6 7 -7 10 -15 7 -18z
m1075 -35 c-6 -6 -33 30 -33 43 0 5 9 -1 19 -14 11 -13 17 -26 14 -29z m52
-60 c10 -11 14 -20 9 -20 -5 0 -15 9 -22 20 -7 11 -11 20 -9 20 2 0 12 -9 22
-20z m-6735 6 c0 -2 -7 -9 -15 -16 -13 -11 -14 -10 -9 4 5 14 24 23 24 12z
m5157 -22 l28 -26 -25 4 c-14 2 -24 9 -22 16 1 6 -7 12 -19 12 -11 0 -17 5
-14 10 10 16 22 12 52 -16z m-6142 6 c3 -5 -3 -10 -14 -10 -12 0 -21 5 -21 10
0 6 6 10 14 10 8 0 18 -4 21 -10z m-30 -26 c13 -5 10 -11 -15 -29 -20 -15 -27
-25 -18 -28 9 -3 7 -7 -7 -13 -11 -4 -23 -12 -27 -18 -4 -6 -10 -7 -14 -4 -5
6 53 98 62 98 1 0 10 -3 19 -6z m6775 -14 c0 -5 -4 -10 -10 -10 -5 0 -10 5
-10 10 0 6 5 10 10 10 6 0 10 -4 10 -10z m1007 4 c-3 -3 -12 -4 -19 -1 -8 3
-5 6 6 6 11 1 17 -2 13 -5z m-1537 -29 c0 -3 -9 -5 -20 -5 -11 0 -20 7 -20 15
0 13 4 14 20 5 11 -6 20 -13 20 -15z m-5325 -25 c-3 -5 -11 -10 -16 -10 -6 0
-7 5 -4 10 3 6 11 10 16 10 6 0 7 -4 4 -10z m5352 -7 c3 -7 -4 -9 -16 -6 -12
3 -18 9 -15 15 7 11 26 6 31 -9z m70 -63 c14 0 33 -39 23 -45 -6 -3 -10 1 -10
9 0 9 -4 16 -9 16 -13 0 -56 44 -59 61 -1 7 9 2 22 -13 14 -16 29 -28 33 -28z
m-6432 -4 c-10 -14 -21 -26 -26 -26 -5 0 -6 -7 -2 -16 4 -10 -2 -17 -16 -21
-14 -3 -21 -12 -19 -23 2 -10 -8 -27 -20 -39 -13 -11 -21 -25 -17 -30 3 -6 -1
-11 -9 -11 -14 0 -18 -6 -15 -27 0 -3 -7 -11 -16 -16 -14 -8 -15 -11 -4 -18
11 -7 10 -9 -5 -9 -12 0 -16 -5 -12 -15 4 -10 -1 -15 -14 -15 -22 0 -28 -13
76 150 30 47 57 93 60 103 4 9 13 17 21 17 8 0 12 4 9 9 -4 5 0 11 6 14 20 7
21 1 3 -27z m959 19 c-4 -8 -11 -15 -16 -15 -6 0 -5 6 2 15 7 8 14 15 16 15 2
0 1 -7 -2 -15z m-42 -47 c-7 -7 -12 -8 -12 -2 0 14 12 26 19 19 2 -3 -1 -11
-7 -17z m5573 -28 c3 -5 1 -10 -4 -10 -6 0 -11 5 -11 10 0 6 2 10 4 10 3 0 8
-4 11 -10z m30 -30 c3 -5 -1 -10 -9 -10 -9 0 -16 5 -16 10 0 6 4 10 9 10 6 0
13 -4 16 -10z m-5675 -30 c0 -5 -5 -10 -11 -10 -5 0 -7 5 -4 10 3 6 8 10 11
10 2 0 4 -4 4 -10z m5710 -5 c7 -8 8 -15 2 -15 -5 0 -15 7 -22 15 -7 8 -8 15
-2 15 5 0 15 -7 22 -15z m-5770 -81 c-18 -21 -24 -10 -8 15 7 12 14 17 16 11
2 -6 -2 -17 -8 -26z m5821 4 c-10 -11 -11 -9 -5 6 6 15 4 17 -6 11 -9 -6 -11
-4 -5 4 5 9 10 10 18 2 8 -8 7 -14 -2 -23z m1476 0 c-3 -8 -6 -5 -6 6 -1 11 2
17 5 13 3 -3 4 -12 1 -19z m-1417 -48 c0 -5 -5 -10 -11 -10 -5 0 -7 5 -4 10 3
6 8 10 11 10 2 0 4 -4 4 -10z m-5930 -24 c0 -3 -4 -8 -10 -11 -5 -3 -10 -1
-10 4 0 6 5 11 10 11 6 0 10 -2 10 -4z m-910 -16 c0 -5 -7 -10 -16 -10 -8 0
-12 -5 -9 -11 4 -5 -3 -19 -16 -30 -12 -10 -17 -19 -11 -19 7 0 12 -4 12 -10
0 -5 -7 -10 -16 -10 -10 0 -14 -6 -10 -15 5 -15 -5 -21 -17 -9 -8 8 40 96 60
112 20 15 23 15 23 2z m1360 -35 c0 -3 -8 -13 -17 -23 -10 -10 -28 -31 -40
-45 -41 -48 -46 -28 -6 23 32 41 63 64 63 45z m5590 -65 c0 -5 -4 -10 -10 -10
-5 0 -10 5 -10 10 0 6 5 10 10 10 6 0 10 -4 10 -10z m-7030 -51 c0 -5 -7 -9
-15 -9 -15 0 -20 12 -9 23 8 8 24 -1 24 -14z m7060 11 c0 -5 -2 -10 -4 -10 -3
0 -8 5 -11 10 -3 6 -1 10 4 10 6 0 11 -4 11 -10z m-5710 -21 c0 -5 -6 -9 -14
-9 -8 0 -16 -6 -19 -12 -2 -7 -7 -10 -10 -7 -10 8 23 50 34 44 5 -4 9 -10 9
-16z m-1380 -24 c-7 -8 -9 -15 -4 -15 4 0 -1 -7 -12 -15 -12 -9 -14 -14 -6
-15 18 0 4 -20 -14 -20 -12 0 -11 8 7 40 13 22 27 40 32 40 5 0 4 -7 -3 -15z
m1335 -25 c3 -5 -1 -10 -9 -10 -9 0 -16 5 -16 10 0 6 4 10 9 10 6 0 13 -4 16
-10z m5820 -20 c3 -5 1 -10 -4 -10 -6 0 -11 5 -11 10 0 6 2 10 4 10 3 0 8 -4
11 -10z m-5842 -6 c3 -3 -3 -14 -13 -24 -10 -10 -22 -26 -28 -36 -6 -10 -13
-16 -17 -13 -7 7 33 79 44 79 4 0 10 -3 14 -6z m-1343 -28 c0 -2 -6 -15 -13
-29 -10 -19 -17 -23 -28 -16 -12 7 -12 9 0 9 8 0 12 3 8 6 -6 7 13 33 26 34 4
0 7 -2 7 -4z m7215 -6 c3 -5 -1 -10 -10 -10 -9 0 -13 5 -10 10 3 6 8 10 10 10
2 0 7 -4 10 -10z m-7247 -68 c2 -7 -4 -12 -13 -12 -9 0 -14 -4 -11 -9 3 -5 0
-11 -8 -14 -11 -5 -12 0 -3 24 11 29 27 34 35 11z m1312 8 c0 -5 -4 -10 -10
-10 -5 0 -10 5 -10 10 0 6 5 10 10 10 6 0 10 -4 10 -10z m-20 -30 c0 -5 -7
-10 -16 -10 -8 0 -12 5 -9 10 3 6 10 10 16 10 5 0 9 -4 9 -10z m6025 -20 c3
-5 1 -10 -4 -10 -6 0 -11 5 -11 10 0 6 2 10 4 10 3 0 8 -4 11 -10z m-7340 -20
c-3 -5 -14 -10 -23 -10 -13 0 -14 -2 -4 -9 11 -7 11 -9 -2 -14 -17 -7 -20 1
-10 27 3 9 15 16 26 16 10 0 16 -4 13 -10z m1295 2 c0 -5 -7 -9 -15 -9 -8 0
-15 4 -15 9 0 4 7 8 15 8 8 0 15 -4 15 -8z m-20 -33 c0 -5 -4 -8 -9 -5 -5 3
-20 -16 -32 -44 -13 -27 -30 -52 -37 -54 -8 -4 -7 4 4 27 35 69 74 109 74 76z
m-1315 -29 c3 -5 -1 -10 -10 -10 -9 0 -13 5 -10 10 3 6 8 10 10 10 2 0 7 -4
10 -10z m-15 -24 c0 -3 -4 -8 -10 -11 -5 -3 -10 -1 -10 4 0 6 5 11 10 11 6 0
10 -2 10 -4z m-5 -36 c3 -5 -1 -10 -10 -10 -11 0 -15 -5 -11 -15 3 -9 0 -15
-9 -15 -12 0 -12 5 -3 25 12 26 23 31 33 15z m1255 -40 c0 -5 -5 -10 -11 -10
-5 0 -7 -4 -4 -10 3 -5 1 -10 -4 -10 -6 0 -11 -6 -11 -14 0 -8 -6 -16 -14 -19
-10 -4 -12 0 -9 14 3 10 9 19 13 19 5 0 12 9 15 20 7 21 25 28 25 10z m-1285
-20 c3 -5 1 -10 -4 -10 -6 0 -11 5 -11 10 0 6 2 10 4 10 3 0 8 -4 11 -10z
m-21 -50 c-10 -16 -19 -28 -21 -26 -7 7 17 56 27 56 7 0 4 -13 -6 -30z m1254
-27 c-8 -10 -18 -26 -21 -35 -9 -25 -26 -23 -20 2 3 11 10 20 15 20 5 0 7 4 3
9 -3 5 3 12 12 14 10 3 20 5 22 6 2 0 -3 -7 -11 -16z m-1273 -23 c3 -5 1 -10
-4 -10 -6 0 -11 5 -11 10 0 6 2 10 4 10 3 0 8 -4 11 -10z m8080 -10 c3 -5 1
-10 -4 -10 -6 0 -11 5 -11 10 0 6 2 10 4 10 3 0 8 -4 11 -10z m-8099 -37 c-10
-10 -19 5 -10 18 6 11 8 11 12 0 2 -7 1 -15 -2 -18z m1252 -10 c-9 -10 -17
-25 -20 -33 -3 -9 -7 -10 -11 -4 -3 6 3 21 14 32 24 26 39 30 17 5z m-1268
-33 c0 -5 -4 -10 -10 -10 -5 0 -10 5 -10 10 0 6 5 10 10 10 6 0 10 -4 10 -10z
m1235 -30 c3 -5 -1 -10 -10 -10 -9 0 -13 5 -10 10 3 6 8 10 10 10 2 0 7 -4 10
-10z m-1238 -6 c-3 -3 -12 -4 -19 -1 -8 3 -5 6 6 6 11 1 17 -2 13 -5z m-17
-35 c0 -6 -4 -7 -10 -4 -5 3 -10 11 -10 16 0 6 5 7 10 4 6 -3 10 -11 10 -16z
m1235 11 c3 -5 1 -10 -4 -10 -6 0 -11 5 -11 10 0 6 2 10 4 10 3 0 8 -4 11 -10z
m6805 -10 c0 -5 -4 -10 -10 -10 -5 0 -10 5 -10 10 0 6 5 10 10 10 6 0 10 -4
10 -10z m-6820 -20 c0 -5 -5 -10 -11 -10 -5 0 -7 5 -4 10 3 6 8 10 11 10 2 0
4 -4 4 -10z m-1235 -20 c3 -5 1 -10 -4 -10 -6 0 -11 5 -11 10 0 6 2 10 4 10 3
0 8 -4 11 -10z m1217 -22 c-7 -7 -12 -8 -12 -2 0 14 12 26 19 19 2 -3 -1 -11
-7 -17z m-1227 -18 c-3 -5 -11 -10 -16 -10 -6 0 -7 5 -4 10 3 6 11 10 16 10 6
0 7 -4 4 -10z m-5 -24 c0 -3 -4 -8 -10 -11 -5 -3 -10 -1 -10 4 0 6 5 11 10 11
6 0 10 -2 10 -4z m1185 -86 c3 -5 1 -10 -4 -10 -6 0 -11 5 -11 10 0 6 2 10 4
10 3 0 8 -4 11 -10z m-15 -40 c0 -5 -2 -10 -4 -10 -3 0 -8 5 -11 10 -3 6 -1
10 4 10 6 0 11 -4 11 -10z m7170 -90 c0 -5 -5 -10 -11 -10 -5 0 -7 5 -4 10 3
6 8 10 11 10 2 0 4 -4 4 -10z m7 -52 c-3 -8 -6 -5 -6 6 -1 11 2 17 5 13 3 -3
4 -12 1 -19z m143 -1332 c0 -3 -4 -8 -10 -11 -5 -3 -10 -1 -10 4 0 6 5 11 10
11 6 0 10 -2 10 -4z m-23 -138 c-3 -8 -6 -5 -6 6 -1 11 2 17 5 13 3 -3 4 -12
1 -19z m-7847 -193 c0 -8 -4 -15 -10 -15 -5 0 -7 7 -4 15 4 8 8 15 10 15 2 0
4 -7 4 -15z m7830 -5 c0 -5 -2 -10 -4 -10 -3 0 -8 5 -11 10 -3 6 -1 10 4 10 6
0 11 -4 11 -10z m-30 -164 c0 -3 -4 -8 -10 -11 -5 -3 -10 -1 -10 4 0 6 5 11
10 11 6 0 10 -2 10 -4z m0 -47 c0 -5 -4 -9 -10 -9 -5 0 -10 7 -10 16 0 8 5 12
10 9 6 -3 10 -10 10 -16z m-7448 -81 c-6 -6 -15 -8 -19 -4 -4 4 -1 11 7 16 19
12 27 3 12 -12z m7428 18 c0 -3 -4 -8 -10 -11 -5 -3 -10 -1 -10 4 0 6 5 11 10
11 6 0 10 -2 10 -4z m-10 -36 c0 -5 -5 -10 -11 -10 -5 0 -7 5 -4 10 3 6 8 10
11 10 2 0 4 -4 4 -10z m-20 -65 c0 -8 -4 -15 -10 -15 -5 0 -7 7 -4 15 4 8 8
15 10 15 2 0 4 -7 4 -15z m0 -29 c0 -3 -4 -8 -10 -11 -5 -3 -10 -1 -10 4 0 6
5 11 10 11 6 0 10 -2 10 -4z m-25 -67 c-8 -23 -13 -45 -10 -49 3 -4 -2 -13 -9
-19 -12 -10 -11 -1 2 49 9 33 20 60 24 60 4 0 1 -18 -7 -41z m-7625 21 c0 -5
-5 -10 -11 -10 -5 0 -7 5 -4 10 3 6 8 10 11 10 2 0 4 -4 4 -10z m40 -120 c0
-5 -5 -10 -11 -10 -5 0 -7 5 -4 10 3 6 8 10 11 10 2 0 4 -4 4 -10z m7564 -5
c-6 -16 -24 -21 -24 -7 0 11 11 22 21 22 5 0 6 -7 3 -15z m-27 -57 c-8 -18
-12 -39 -10 -45 3 -7 -1 -13 -7 -13 -8 0 -10 8 -5 23 3 12 9 32 12 45 3 12 9
22 14 22 5 0 3 -15 -4 -32z m-30 -90 c-3 -8 -6 -5 -6 6 -1 11 2 17 5 13 3 -3
4 -12 1 -19z m-7450 -14 c-3 -3 -12 -4 -19 -1 -8 3 -5 6 6 6 11 1 17 -2 13 -5z
m7443 -8 c0 -2 -8 -21 -17 -42 -9 -22 -16 -42 -15 -46 1 -5 -3 -8 -9 -8 -7 0
-8 7 -4 18 4 9 10 27 12 40 3 12 10 22 15 22 5 0 6 5 3 10 -3 6 -1 10 4 10 6
0 11 -2 11 -4z m-63 -156 c-1 -22 -17 -28 -17 -7 0 12 9 27 16 27 2 0 2 -9 1
-20z m-7317 0 c0 -5 -2 -10 -4 -10 -3 0 -8 5 -11 10 -3 6 -1 10 4 10 6 0 11
-4 11 -10z m7300 -49 c0 -6 -4 -13 -10 -16 -5 -3 -10 1 -10 9 0 9 5 16 10 16
6 0 10 -4 10 -9z m-200 -11 c0 -5 -4 -10 -10 -10 -5 0 -10 5 -10 10 0 6 5 10
10 10 6 0 10 -4 10 -10z m-40 -4 c0 -3 -4 -8 -10 -11 -5 -3 -10 -1 -10 4 0 6
5 11 10 11 6 0 10 -2 10 -4z m221 -39 c-6 -8 -8 -17 -4 -20 3 -4 1 -7 -5 -7
-7 0 -12 9 -12 20 0 12 7 20 16 20 13 0 14 -3 5 -13z m-21 -46 c0 -5 -7 -11
-14 -14 -10 -4 -13 -1 -9 9 6 15 23 19 23 5z m-253 -57 c-9 -9 -28 6 -21 18 4
6 10 6 17 -1 6 -6 8 -13 4 -17z m232 5 c-16 -10 -23 -4 -14 10 3 6 11 8 17 5
6 -4 5 -9 -3 -15z m-249 -34 c-7 -8 -16 -12 -21 -9 -13 8 -1 24 18 24 13 0 13
-3 3 -15z m50 5 c0 -5 -4 -10 -10 -10 -5 0 -10 5 -10 10 0 6 5 10 10 10 6 0
10 -4 10 -10z m190 5 c0 -2 -9 -9 -20 -15 -16 -9 -18 -8 -14 5 5 13 34 22 34
10z m-313 -45 c1 -11 -2 -22 -8 -25 -5 -4 -9 5 -9 19 0 30 15 35 17 6z m53
-11 c0 -5 -7 -9 -15 -9 -9 0 -12 6 -9 15 6 15 24 11 24 -6z m220 -15 c0 -8 -4
-12 -10 -9 -5 3 -10 10 -10 16 0 5 5 9 10 9 6 0 10 -7 10 -16z m-271 -30 c7 9
17 13 22 10 5 -3 9 0 9 5 0 6 5 11 10 11 14 0 4 -51 -12 -62 -10 -5 -8 -8 5
-8 10 0 15 -4 12 -10 -3 -6 1 -7 9 -4 11 4 16 0 16 -10 0 -10 -9 -16 -25 -16
-16 0 -25 6 -25 15 0 8 -5 15 -10 15 -7 0 -7 -6 0 -20 6 -11 18 -20 27 -20 14
0 14 -2 -2 -20 -10 -11 -15 -20 -11 -20 4 0 2 -9 -4 -20 -6 -11 -17 -20 -25
-20 -10 0 -15 -10 -15 -30 0 -16 -4 -30 -8 -30 -5 0 -18 -8 -30 -18 -19 -17
-19 -19 -4 -29 14 -8 7 -13 -41 -29 -46 -14 -56 -21 -52 -35 4 -12 -6 -30 -30
-54 -20 -19 -32 -35 -26 -35 16 0 14 -26 -4 -43 -8 -8 -11 -18 -7 -22 4 -5 2
-5 -4 -2 -14 8 -36 -16 -32 -34 2 -9 -5 -13 -19 -11 -13 2 -23 -2 -23 -8 0 -6
4 -9 9 -5 5 3 12 1 15 -3 3 -5 -10 -18 -29 -28 -27 -14 -34 -23 -29 -39 5 -16
4 -18 -6 -8 -14 13 -55 -1 -45 -16 6 -11 -13 -19 -42 -16 -13 1 -23 -2 -23 -6
0 -4 -16 -5 -36 -3 -33 4 -35 3 -24 -11 8 -10 22 -14 35 -11 22 6 80 -26 68
-37 -3 -4 -20 -7 -37 -7 -27 0 -28 -1 -11 -13 12 -10 14 -16 7 -21 -7 -4 -12
-4 -12 1 0 7 -53 9 -105 4 -19 -1 -19 -2 -2 -12 13 -8 22 -7 33 2 17 14 19 12
27 -22 6 -24 4 -26 -19 -21 -28 5 -49 -15 -35 -33 5 -5 5 -20 0 -32 -6 -17
-17 -23 -41 -24 -23 -1 -26 -3 -11 -6 18 -3 20 -7 10 -18 -6 -7 -15 -11 -18
-9 -3 2 -21 -14 -39 -36 -18 -22 -36 -37 -40 -35 -4 3 -13 -2 -20 -10 -14 -17
-30 -20 -30 -5 0 6 7 10 16 10 14 0 14 2 0 15 -8 8 -21 15 -30 15 -19 0 -33
-23 -17 -28 18 -6 -28 -52 -52 -52 -11 0 -21 -9 -24 -20 -5 -18 -11 -20 -49
-14 -48 7 -53 1 -28 -35 10 -13 18 -37 20 -54 4 -28 3 -29 -27 -23 -42 8 -66
-10 -45 -33 14 -15 13 -16 -12 -15 -40 2 -55 -6 -42 -21 8 -10 4 -18 -19 -31
-17 -10 -31 -21 -31 -25 0 -4 -10 -5 -22 -2 -13 3 -20 3 -16 -2 9 -10 -14 -34
-29 -28 -6 3 -9 11 -7 18 3 7 0 16 -5 20 -6 3 -9 10 -6 15 3 5 1 11 -5 15 -17
10 -11 25 9 25 11 0 23 5 26 10 10 16 -25 25 -46 12 -22 -14 -39 -15 -39 -3 0
5 9 11 21 14 13 4 18 10 13 18 -4 7 -3 10 2 6 5 -3 25 -1 44 4 l35 8 -32 -3
c-21 -1 -33 2 -33 10 0 13 55 64 69 64 4 0 28 18 52 41 75 70 125 100 154 93
27 -7 36 -44 10 -44 -8 0 -15 7 -15 15 0 13 -3 13 -20 3 -19 -12 -19 -13 10
-21 16 -4 30 -12 30 -17 0 -6 7 -10 15 -10 9 0 12 6 9 15 -4 9 0 15 9 15 8 0
17 9 20 19 3 15 -1 21 -17 23 -13 2 -22 11 -24 27 -4 22 -3 23 19 7 30 -20 45
-20 53 0 5 13 1 15 -19 12 -14 -3 -28 -1 -31 3 -3 5 0 9 6 9 7 0 9 7 6 16 -4
11 -2 15 8 11 10 -4 17 2 22 16 10 34 44 66 62 60 11 -5 14 -2 10 9 -4 10 15
36 56 76 34 33 93 99 132 146 38 47 75 85 82 86 6 0 11 5 10 12 -3 12 1 14 50
18 18 1 21 4 10 7 -20 5 -23 18 -7 28 6 4 8 14 5 22 -3 8 -1 11 4 8 6 -3 10
-1 10 5 0 7 6 10 14 7 20 -8 27 3 16 24 -8 14 -4 22 15 37 13 11 22 22 19 25
-3 2 17 37 43 77 26 40 53 80 58 89 69 117 79 130 89 116 8 -10 16 -12 26 -5
8 5 10 10 4 10 -6 0 -11 7 -11 15 0 8 4 15 9 15 4 0 8 7 8 15 0 8 14 18 33 23
27 7 34 6 43 -10 9 -17 12 -18 23 -4z m256 6 c3 -5 -1 -10 -10 -10 -9 0 -13 5
-10 10 3 6 8 10 10 10 2 0 7 -4 10 -10z m-7010 -30 c3 -5 1 -10 -4 -10 -6 0
-11 5 -11 10 0 6 2 10 4 10 3 0 8 -4 11 -10z m6971 -44 c-8 -15 -16 -23 -20
-18 -5 9 23 56 30 49 2 -2 -2 -16 -10 -31z m-34 -67 c-12 -11 -20 -24 -17 -30
4 -5 0 -9 -9 -9 -11 0 -10 8 7 40 14 24 25 36 31 30 6 -6 2 -18 -12 -31z
m-6878 15 c3 -8 2 -12 -4 -9 -6 3 -10 10 -10 16 0 14 7 11 14 -7z m26 -44 c0
-5 -2 -10 -4 -10 -3 0 -8 5 -11 10 -3 6 -1 10 4 10 6 0 11 -4 11 -10z m6813
-37 c-3 -10 -12 -25 -19 -33 -7 -8 -13 -19 -13 -25 0 -5 -4 -11 -10 -13 -16
-5 -14 4 12 48 22 41 41 54 30 23z m-6783 -13 c0 -5 -7 -10 -15 -10 -8 0 -15
5 -15 10 0 6 7 10 15 10 8 0 15 -4 15 -10z m15 -30 c-3 -5 -11 -10 -16 -10 -6
0 -7 5 -4 10 3 6 11 10 16 10 6 0 7 -4 4 -10z m15 -30 c0 -5 -4 -10 -10 -10
-5 0 -10 5 -10 10 0 6 5 10 10 10 6 0 10 -4 10 -10z m6700 -25 c0 -9 -7 -18
-15 -21 -8 -4 -15 -12 -15 -20 0 -8 -4 -14 -10 -14 -14 0 -13 8 7 41 19 32 33
38 33 14z m-6680 -5 c0 -5 -4 -10 -10 -10 -5 0 -10 5 -10 10 0 6 5 10 10 10 6
0 10 -4 10 -10z m25 -31 c11 -17 -1 -21 -15 -4 -8 9 -8 15 -2 15 6 0 14 -5 17
-11z m6525 -23 c0 -2 -8 -10 -17 -17 -16 -13 -17 -12 -4 4 13 16 21 21 21 13z
m80 -16 c0 -5 -4 -10 -10 -10 -5 0 -10 5 -10 10 0 6 5 10 10 10 6 0 10 -4 10
-10z m-6560 -30 c0 -5 -4 -10 -10 -10 -5 0 -10 5 -10 10 0 6 5 10 10 10 6 0
10 -4 10 -10z m6540 -5 c0 -8 -7 -15 -15 -15 -9 0 -12 6 -9 15 4 8 10 15 15
15 5 0 9 -7 9 -15z m-6515 -25 c3 -5 -1 -10 -10 -10 -9 0 -13 5 -10 10 3 6 8
10 10 10 2 0 7 -4 10 -10z m6487 -21 c-12 -5 -22 -15 -22 -24 0 -9 -7 -18 -16
-22 -8 -3 -13 -12 -10 -19 3 -7 -4 -16 -14 -19 -10 -3 -17 -12 -14 -19 4 -11
-34 -46 -50 -46 -3 0 22 38 55 84 44 63 64 83 76 79 13 -5 13 -8 -5 -14z
m-6457 -28 c-6 -5 -25 10 -25 20 0 5 6 4 14 -3 8 -7 12 -15 11 -17z m25 -31
c0 -5 -4 -10 -10 -10 -5 0 -10 5 -10 10 0 6 5 10 10 10 6 0 10 -4 10 -10z m91
-7 c13 -16 12 -17 -3 -4 -10 7 -18 15 -18 17 0 8 8 3 21 -13z m6199 3 c0 -2
-8 -10 -17 -17 -16 -13 -17 -12 -4 4 13 16 21 21 21 13z m-6270 -26 c0 -5 -4
-10 -10 -10 -5 0 -10 5 -10 10 0 6 5 10 10 10 6 0 10 -4 10 -10z m480 -20 c0
-5 -2 -10 -4 -10 -3 0 -8 5 -11 10 -3 6 -1 10 4 10 6 0 11 -4 11 -10z m-445
-20 c3 -5 -1 -10 -9 -10 -9 0 -16 5 -16 10 0 6 4 10 9 10 6 0 13 -4 16 -10z
m6260 -40 c-3 -5 -13 -10 -20 -10 -9 0 -12 -6 -9 -15 4 -9 0 -15 -10 -15 -13
0 -14 4 -4 25 6 14 20 25 30 25 11 0 16 -4 13 -10z m-6215 -20 c0 -5 -4 -10
-10 -10 -5 0 -10 5 -10 10 0 6 5 10 10 10 6 0 10 -4 10 -10z m5997 -16 c-3 -3
-12 -4 -19 -1 -8 3 -5 6 6 6 11 1 17 -2 13 -5z m-5967 -25 c0 -6 -4 -7 -10 -4
-5 3 -10 11 -10 16 0 6 5 7 10 4 6 -3 10 -11 10 -16z m6136 -1 c4 -7 4 -10 -1
-6 -7 7 -35 -14 -35 -27 0 -6 -10 -20 -50 -64 -69 -78 -84 -97 -82 -103 1 -5
-5 -8 -13 -8 -8 0 -15 -7 -15 -15 0 -9 -6 -12 -15 -8 -9 3 -15 2 -13 -3 1 -5
-23 -35 -55 -67 -31 -33 -57 -63 -57 -68 0 -5 -4 -9 -8 -9 -4 0 -25 -16 -46
-36 -21 -19 -41 -33 -44 -29 -4 4 25 37 63 73 117 112 316 329 338 367 10 18
23 19 33 3z m-6106 -38 c0 -5 -7 -7 -15 -4 -8 4 -15 8 -15 10 0 2 7 4 15 4 8
0 15 -4 15 -10z m5960 -13 c0 -2 -17 -19 -37 -38 l-38 -34 34 38 c33 34 41 42
41 34z m-5930 -17 c0 -5 -2 -10 -4 -10 -3 0 -8 5 -11 10 -3 6 -1 10 4 10 6 0
11 -4 11 -10z m20 -30 c0 -5 -2 -10 -4 -10 -3 0 -8 5 -11 10 -3 6 -1 10 4 10
6 0 11 -4 11 -10z m40 -45 c11 -13 10 -14 -4 -9 -9 3 -16 10 -16 15 0 13 6 11
20 -6z m5770 -8 c0 -2 -10 -12 -22 -23 l-23 -19 19 23 c18 21 26 27 26 19z
m-5705 -57 c3 -5 2 -10 -4 -10 -5 0 -13 5 -16 10 -3 6 -2 10 4 10 5 0 13 -4
16 -10z m5635 -24 c0 -2 -8 -10 -17 -17 -16 -13 -17 -12 -4 4 13 16 21 21 21
13z m-5590 -26 c0 -5 -4 -10 -10 -10 -5 0 -10 5 -10 10 0 6 5 10 10 10 6 0 10
-4 10 -10z m40 -35 c7 -9 10 -18 6 -22 -3 -3 -6 -1 -6 5 0 7 -6 12 -14 12 -8
0 -18 5 -21 10 -10 16 21 11 35 -5z m35 -35 c3 -5 1 -10 -4 -10 -6 0 -11 5
-11 10 0 6 2 10 4 10 3 0 8 -4 11 -10z m50 -50 c22 -23 25 -30 12 -30 -9 0
-17 7 -17 16 0 8 -4 12 -10 9 -5 -3 -10 1 -10 9 0 8 -8 17 -17 19 -14 4 -15 5
-2 6 8 0 28 -12 44 -29z m5295 -13 c0 -2 -19 -21 -42 -42 l-43 -40 40 43 c36
39 45 47 45 39z m-5225 -47 c3 -5 -3 -10 -14 -10 -12 0 -21 5 -21 10 0 6 6 10
14 10 8 0 18 -4 21 -10z m5072 -10 c1 -11 -2 -20 -8 -20 -18 0 -24 -2 -36 -12
-7 -6 -13 -7 -13 -2 0 5 -5 2 -11 -6 -7 -12 -9 -8 -7 15 3 26 8 31 38 36 19 4
35 7 35 8 1 0 1 -8 2 -19z m193 -4 c0 -16 -14 -36 -26 -36 -8 0 -14 -5 -14
-10 0 -6 -7 -13 -15 -17 -9 -3 -35 -24 -59 -47 -52 -50 -86 -78 -86 -69 0 3
-11 -6 -25 -21 -13 -14 -29 -26 -35 -26 -6 0 -21 -10 -33 -22 -29 -30 -83 -68
-97 -68 -5 0 -10 -7 -10 -15 0 -8 -4 -15 -9 -15 -5 0 -23 -12 -40 -26 -17 -14
-31 -23 -31 -19 0 3 -7 -1 -16 -9 -8 -9 -22 -16 -31 -16 -9 0 -26 -11 -38 -24
-13 -14 -26 -22 -29 -19 -3 4 -6 1 -6 -5 0 -7 -6 -12 -13 -12 -8 0 -33 -13
-55 -30 -23 -16 -48 -30 -56 -30 -8 0 -16 -4 -18 -8 -4 -10 -189 -102 -206
-102 -6 0 -12 -4 -12 -9 0 -5 -13 -14 -30 -20 -16 -5 -30 -15 -30 -20 0 -6 -6
-8 -14 -5 -8 3 -17 1 -21 -5 -3 -6 -15 -11 -25 -11 -10 0 -31 -7 -47 -15 -15
-8 -55 -24 -88 -36 -33 -12 -71 -27 -84 -33 -13 -6 -29 -11 -35 -11 -6 -1 -22
-6 -36 -12 -14 -7 -65 -24 -115 -39 -49 -14 -96 -31 -102 -36 -7 -6 -13 -8
-13 -5 0 3 -23 -1 -52 -8 -28 -8 -115 -26 -192 -40 -78 -14 -172 -33 -211 -40
-38 -8 -108 -17 -155 -20 -47 -2 -130 -7 -185 -11 -128 -8 -493 -6 -508 3 -6
3 -33 8 -61 9 -84 5 -137 11 -142 17 -3 3 -12 3 -20 0 -8 -3 -14 0 -14 7 0 10
16 11 63 6 245 -25 594 -30 790 -10 23 2 69 6 102 9 119 11 418 65 525 94 110
31 158 43 183 48 15 3 30 9 33 14 3 5 12 9 20 9 40 0 518 198 604 251 8 5 44
24 80 41 36 18 67 35 70 38 3 4 48 33 100 65 88 54 208 133 220 145 3 3 39 30
80 61 41 31 84 65 95 75 12 11 45 39 75 64 30 24 61 52 68 62 12 16 32 25 32
14z m-5223 -33 c-8 -7 -37 9 -31 19 3 5 12 4 20 -3 8 -6 13 -14 11 -16z m5093
14 c0 -2 -12 -14 -27 -28 l-28 -24 24 28 c23 25 31 32 31 24z m-4690 -18 c0
-5 4 -7 10 -4 6 4 7 -1 3 -11 -4 -11 -8 -13 -11 -6 -2 7 -8 10 -13 6 -5 -3 -9
2 -9 10 0 9 5 16 10 16 6 0 10 -5 10 -11z m-364 -24 c8 -8 25 -21 36 -30 12
-8 19 -17 16 -20 -3 -4 -18 5 -33 19 -16 15 -34 26 -41 26 -8 0 -14 5 -14 10
0 15 19 12 36 -5z m199 -15 c-3 -5 -10 -10 -16 -10 -5 0 -9 5 -9 10 0 6 7 10
16 10 8 0 12 -4 9 -10z m4775 -14 c0 -2 -8 -10 -17 -17 -16 -13 -17 -12 -4 4
13 16 21 21 21 13z m-4875 -46 c3 -5 -1 -10 -9 -10 -8 0 -18 5 -21 10 -3 6 1
10 9 10 8 0 18 -4 21 -10z m30 -30 c3 -5 -1 -10 -9 -10 -9 0 -16 5 -16 10 0 6
4 10 9 10 6 0 13 -4 16 -10z m45 -35 c16 -19 0 -19 -26 0 -16 12 -16 14 -3 15
9 0 22 -7 29 -15z m4360 5 c0 -6 -11 -8 -25 -4 -19 5 -25 2 -25 -11 0 -11 5
-15 16 -11 8 3 12 2 9 -3 -3 -6 2 -14 12 -19 16 -9 16 -11 0 -27 -19 -19 -22
-35 -6 -35 5 0 7 5 3 12 -4 7 -3 8 4 4 13 -8 5 -36 -10 -36 -6 0 -8 -11 -5
-25 5 -30 -19 -49 -46 -34 -13 8 -15 6 -11 -5 4 -11 -3 -14 -30 -13 -20 1 -36
5 -36 9 0 4 5 8 11 8 5 0 7 4 4 10 -9 14 -42 -9 -42 -29 0 -9 5 -19 11 -23 15
-10 -33 -26 -72 -23 -24 1 -32 -2 -28 -12 5 -12 -5 -17 -30 -14 -6 1 -16 -11
-23 -25 -7 -17 -17 -24 -26 -20 -8 3 -15 1 -15 -3 0 -5 -9 -7 -20 -4 -13 3
-20 14 -20 29 0 21 3 23 26 14 32 -13 43 -13 24 0 -13 8 -13 10 0 10 11 0 11
3 2 12 -13 13 11 37 39 38 17 0 34 50 18 50 -5 0 -9 -7 -9 -16 0 -8 -4 -12
-10 -9 -5 3 -10 2 -10 -3 0 -6 -7 -13 -15 -16 -20 -7 -32 23 -14 35 11 7 11 9
-3 9 -10 0 -18 5 -18 10 0 6 5 10 10 10 6 0 21 11 33 24 12 13 30 22 39 21 9
-2 19 3 22 11 3 8 20 22 38 30 18 8 47 23 63 34 60 39 65 41 65 30 0 -16 37
-12 44 5 6 17 56 21 56 5z m-4235 -10 c3 -5 1 -10 -4 -10 -6 0 -11 5 -11 10 0
6 2 10 4 10 3 0 8 -4 11 -10z m4281 -22 c-10 -6 -20 -7 -24 -3 -9 8 20 25 31
18 5 -3 2 -10 -7 -15z m-4338 -18 c34 -21 42 -40 16 -40 -8 0 -13 4 -9 10 3 5
-8 16 -25 25 -29 15 -38 25 -22 25 4 0 22 -9 40 -20z m4318 -27 c-10 -10 -19
5 -10 18 6 11 8 11 12 0 2 -7 1 -15 -2 -18z m194 13 c0 -2 -7 -7 -16 -10 -8
-3 -12 -2 -9 4 6 10 25 14 25 6z m-4434 -41 c10 -8 14 -15 7 -15 -19 0 -43 11
-43 21 0 13 14 11 36 -6z m89 -61 c59 -39 65 -47 38 -42 -19 3 -22 5 -62 38
-13 11 -30 20 -38 20 -7 0 -13 5 -13 10 0 18 19 11 75 -26z m105 10 c0 -2 -9
0 -20 6 -11 6 -20 13 -20 16 0 2 9 0 20 -6 11 -6 20 -13 20 -16z m4130 21 c0
-2 -10 -9 -22 -15 -22 -11 -22 -10 -4 4 21 17 26 19 26 11z m-4075 -55 c3 -6
-1 -7 -9 -4 -18 7 -21 14 -7 14 6 0 13 -4 16 -10z m55 -36 c0 -2 -9 0 -20 6
-11 6 -20 13 -20 16 0 2 9 0 20 -6 11 -6 20 -13 20 -16z m-130 8 c0 -5 19 -18
43 -31 90 -47 122 -70 125 -87 3 -18 2 -18 -8 -1 -6 9 -20 17 -30 17 -11 0
-20 5 -20 10 0 6 -7 10 -15 10 -8 0 -23 8 -33 18 -10 10 -32 24 -50 31 -30 12
-45 41 -22 41 6 0 10 -4 10 -8z m4010 -7 c0 -2 -10 -9 -22 -15 -22 -11 -22
-10 -4 4 21 17 26 19 26 11z m-115 -65 c-3 -5 -12 -10 -18 -10 -7 0 -6 4 3 10
19 12 23 12 15 0z m-40 -20 c-3 -5 -12 -10 -18 -10 -7 0 -6 4 3 10 19 12 23
12 15 0z m-3525 -26 c0 -2 -9 0 -20 6 -11 6 -20 13 -20 16 0 2 9 0 20 -6 11
-6 20 -13 20 -16z m3490 11 c0 -6 -56 -35 -67 -35 -4 1 8 9 27 20 39 22 40 22
40 15z m-3615 -15 c3 -5 -1 -10 -9 -10 -9 0 -16 5 -16 10 0 6 4 10 9 10 6 0
13 -4 16 -10z m142 -69 c62 -30 110 -57 108 -62 -7 -10 -67 7 -76 22 -4 6 -11
9 -17 5 -5 -3 -12 0 -15 7 -3 7 -23 19 -46 27 -23 7 -41 16 -41 20 0 4 -9 10
-20 13 -11 3 -20 10 -20 17 0 6 3 10 8 8 4 -2 57 -28 119 -57z m87 30 c4 -5
-3 -7 -14 -4 -23 6 -26 13 -6 13 8 0 17 -4 20 -9z m3252 -16 c-11 -8 -25 -15
-30 -15 -6 1 0 7 14 15 32 19 40 18 16 0z m-3066 -25 c0 -5 -4 -10 -10 -10 -5
0 -10 5 -10 10 0 6 5 10 10 10 6 0 10 -4 10 -10z m2335 -30 c-3 -5 -11 -10
-16 -10 -6 0 -7 5 -4 10 3 6 11 10 16 10 6 0 7 -4 4 -10z m-2295 -26 l25 -15
-25 7 c-14 3 -32 10 -40 15 -13 7 -13 8 0 8 8 0 26 -6 40 -15z m-134 -15 c27
-11 58 -24 69 -29 11 -4 36 -15 55 -23 19 -8 87 -31 150 -52 63 -21 124 -41
135 -46 11 -4 34 -10 50 -13 17 -3 64 -15 105 -26 96 -27 398 -90 428 -90 12
0 22 -5 22 -11 0 -11 -26 -10 -130 7 -25 4 -50 11 -57 16 -7 5 -17 7 -23 3 -5
-3 -15 -3 -21 1 -6 4 -34 8 -62 9 -28 2 -53 8 -55 14 -2 6 -7 9 -12 6 -5 -3
-20 -1 -34 5 -15 5 -40 11 -57 12 -17 1 -33 6 -35 10 -3 4 -13 8 -23 8 -28 0
-429 136 -441 149 -3 3 -16 7 -30 9 -14 1 -26 7 -28 12 -2 5 -10 6 -18 3 -8
-3 -14 1 -14 11 0 10 -6 13 -15 10 -9 -4 -15 0 -15 10 0 20 -2 20 56 -5z
m2964 11 c-8 -5 -19 -10 -25 -10 -5 0 -3 5 5 10 8 5 20 10 25 10 6 0 3 -5 -5
-10z m-1020 -100 c0 -13 -6 -20 -17 -19 -11 0 -13 3 -5 6 6 2 12 11 12 19 0 8
2 14 5 14 3 0 5 -9 5 -20z m-1533 4 c-3 -3 -12 -4 -19 -1 -8 3 -5 6 6 6 11 1
17 -2 13 -5z m2203 -29 c-19 -7 -42 -13 -50 -13 -8 0 1 6 20 13 19 7 42 13 50
13 8 0 -1 -6 -20 -13z m-410 -5 c8 -5 11 -12 7 -16 -4 -4 -15 0 -24 9 -18 18
-8 23 17 7z m-1625 -10 c13 -6 15 -9 5 -9 -8 0 -22 4 -30 9 -18 12 -2 12 25 0z
m1745 0 c0 -5 -5 -10 -11 -10 -5 0 -7 5 -4 10 3 6 8 10 11 10 2 0 4 -4 4 -10z
m68 -1 c-2 -6 -8 -10 -13 -10 -5 0 -11 4 -13 10 -2 6 4 11 13 11 9 0 15 -5 13
-11z m-343 -28 c2 -4 -9 -8 -25 -8 -17 0 -28 3 -25 5 3 3 0 11 -6 18 -9 11 -6
12 20 3 17 -6 33 -14 36 -18z m454 15 c-2 -2 -17 -6 -34 -10 -22 -5 -26 -4
-15 4 14 9 59 15 49 6z m-90 -20 c-2 -2 -22 -6 -44 -10 -29 -5 -36 -4 -25 3
13 10 79 16 69 7z m-96 -23 c-7 -2 -19 -2 -25 0 -7 3 -2 5 12 5 14 0 19 -2 13
-5z m-1336 -29 c-3 -3 -12 -4 -19 -1 -8 3 -5 6 6 6 11 1 17 -2 13 -5z m1001
-21 c-10 -2 -26 -2 -35 0 -10 3 -2 5 17 5 19 0 27 -2 18 -5z m-565 -20 c-7 -2
-21 -2 -30 0 -10 3 -4 5 12 5 17 0 24 -2 18 -5z m285 0 c-10 -2 -26 -2 -35 0
-10 3 -2 5 17 5 19 0 27 -2 18 -5z"/>
<path d="M5560 8929 c0 -5 4 -8 9 -5 5 3 11 -1 15 -9 3 -8 11 -15 17 -15 7 0
5 8 -6 20 -20 22 -35 26 -35 9z"/>
<path d="M5346 8914 c-8 -21 -8 -24 5 -24 5 0 7 5 4 10 -3 6 -1 10 4 10 6 0
11 5 11 10 0 16 -17 12 -24 -6z"/>
<path d="M5635 8920 c-3 -5 1 -10 9 -10 9 0 16 5 16 10 0 6 -4 10 -9 10 -6 0
-13 -4 -16 -10z"/>
<path d="M5636 8886 c4 -9 -3 -16 -18 -19 -17 -3 -15 -5 10 -6 26 -1 32 3 32
19 0 11 -7 20 -15 20 -8 0 -12 -6 -9 -14z"/>
<path d="M5580 8839 c0 -5 5 -7 10 -4 6 3 10 8 10 11 0 2 -4 4 -10 4 -5 0 -10
-5 -10 -11z"/>
<path d="M6018 8833 c6 -2 18 -2 25 0 6 3 1 5 -13 5 -14 0 -19 -2 -12 -5z"/>
<path d="M6250 8780 c0 -6 7 -13 15 -17 24 -9 27 1 5 15 -13 8 -20 8 -20 2z"/>
<path d="M6230 8729 c0 -5 9 -9 20 -9 11 0 20 2 20 4 0 2 -9 6 -20 9 -11 3
-20 1 -20 -4z"/>
<path d="M3762 8715 c-10 -12 -10 -15 1 -15 8 0 20 7 27 15 17 21 -10 20 -28
0z"/>
<path d="M3675 8690 c-3 -5 -2 -10 4 -10 5 0 13 5 16 10 3 6 2 10 -4 10 -5 0
-13 -4 -16 -10z"/>
<path d="M3610 8640 c0 -5 5 -10 11 -10 5 0 7 5 4 10 -3 6 -8 10 -11 10 -2 0
-4 -4 -4 -10z"/>
<path d="M6650 8589 c0 -5 5 -7 10 -4 6 3 10 8 10 11 0 2 -4 4 -10 4 -5 0 -10
-5 -10 -11z"/>
<path d="M6715 8580 c4 -6 11 -8 16 -5 14 9 11 15 -7 15 -8 0 -12 -5 -9 -10z"/>
<path d="M3306 8522 c-3 -6 -1 -14 5 -17 15 -10 25 3 12 16 -7 7 -13 7 -17 1z"/>
<path d="M3365 8510 c-3 -5 -2 -10 4 -10 5 0 13 5 16 10 3 6 2 10 -4 10 -5 0
-13 -4 -16 -10z"/>
<path d="M6760 8500 c0 -5 7 -10 15 -10 8 0 15 5 15 10 0 6 -7 10 -15 10 -8 0
-15 -4 -15 -10z"/>
<path d="M6930 8490 c0 -5 5 -10 10 -10 6 0 10 5 10 10 0 6 -4 10 -10 10 -5 0
-10 -4 -10 -10z"/>
<path d="M3345 8470 c3 -5 11 -10 16 -10 6 0 7 5 4 10 -3 6 -11 10 -16 10 -6
0 -7 -4 -4 -10z"/>
<path d="M6845 8450 c-3 -5 -1 -10 4 -10 6 0 11 5 11 10 0 6 -2 10 -4 10 -3 0
-8 -4 -11 -10z"/>
<path d="M7080 8389 c0 -5 5 -7 10 -4 6 3 10 8 10 11 0 2 -4 4 -10 4 -5 0 -10
-5 -10 -11z"/>
<path d="M7050 8280 c0 -5 5 -10 11 -10 5 0 7 5 4 10 -3 6 -8 10 -11 10 -2 0
-4 -4 -4 -10z"/>
<path d="M8110 7315 c-14 -17 -6 -50 10 -40 8 5 8 11 0 20 -8 10 -7 14 2 18 7
2 10 7 7 11 -3 4 -12 0 -19 -9z"/>
<path d="M8050 7296 c0 -2 7 -6 15 -10 8 -3 15 -1 15 4 0 6 -7 10 -15 10 -8 0
-15 -2 -15 -4z"/>
<path d="M8163 7233 c-3 -10 -15 -26 -27 -36 -18 -15 -15 -15 19 2 22 12 48
18 57 15 28 -9 21 4 -12 21 -28 15 -31 14 -37 -2z"/>
<path d="M8176 7185 c-3 -8 -1 -15 4 -15 13 0 22 18 11 24 -5 3 -11 -1 -15 -9z"/>
<path d="M1635 6761 c3 -6 -3 -14 -12 -20 -10 -5 -15 -12 -12 -16 8 -7 39 22
39 36 0 5 -5 9 -11 9 -5 0 -8 -4 -4 -9z"/>
<path d="M8575 6491 c-3 -6 -2 -11 4 -11 6 0 8 -7 5 -15 -4 -8 -2 -15 4 -15 6
0 12 5 14 12 3 7 10 8 17 3 11 -6 10 -10 -3 -17 -9 -5 -16 -14 -16 -20 0 -9 3
-9 12 0 7 7 19 12 28 12 25 0 22 37 -3 43 -12 2 -29 8 -38 11 -10 4 -20 3 -24
-3z"/>
<path d="M8555 6410 c3 -5 8 -10 11 -10 2 0 4 5 4 10 0 6 -5 10 -11 10 -5 0
-7 -4 -4 -10z"/>
<path d="M8580 6402 c0 -8 6 -12 14 -9 8 3 17 1 20 -6 3 -9 5 -9 5 1 1 6 7 12
15 12 8 0 17 4 20 9 3 5 -12 8 -34 7 -27 0 -40 -5 -40 -14z"/>
<path d="M8750 5254 c-9 -21 -7 -29 7 -39 13 -10 20 -10 25 -2 4 7 1 13 -7 15
-22 5 -18 22 5 22 13 0 18 5 14 15 -9 24 -34 18 -44 -11z"/>
<path d="M8820 5270 c0 -5 5 -10 10 -10 6 0 10 5 10 10 0 6 -4 10 -10 10 -5 0
-10 -4 -10 -10z"/>
<path d="M1281 5214 c0 -11 3 -14 6 -6 3 7 2 16 -1 19 -3 4 -6 -2 -5 -13z"/>
<path d="M1390 5000 c0 -5 5 -10 10 -10 6 0 10 5 10 10 0 6 -4 10 -10 10 -5 0
-10 -4 -10 -10z"/>
<path d="M1416 4741 c-3 -5 3 -11 15 -14 16 -4 18 -3 8 9 -13 16 -16 17 -23 5z"/>
<path d="M8580 4169 c0 -5 5 -7 10 -4 6 3 10 8 10 11 0 2 -4 4 -10 4 -5 0 -10
-5 -10 -11z"/>
<path d="M1546 4142 c-3 -5 1 -18 9 -28 14 -18 14 -18 15 3 0 23 -15 39 -24
25z"/>
<path d="M1520 4089 c0 -5 5 -7 10 -4 6 3 10 8 10 11 0 2 -4 4 -10 4 -5 0 -10
-5 -10 -11z"/>
<path d="M1496 4011 c-4 -5 3 -7 14 -4 23 6 26 13 6 13 -8 0 -17 -4 -20 -9z"/>
<path d="M8475 3800 c-3 -6 1 -13 10 -16 19 -8 30 0 20 15 -8 14 -22 14 -30 1z"/>
<path d="M1577 3734 c-3 -5 1 -15 9 -22 16 -14 18 -5 5 17 -5 7 -11 9 -14 5z"/>
<path d="M1550 3700 c0 -5 5 -10 10 -10 6 0 10 5 10 10 0 6 -4 10 -10 10 -5 0
-10 -4 -10 -10z"/>
<path d="M8395 3660 c3 -5 8 -10 11 -10 2 0 4 5 4 10 0 6 -5 10 -11 10 -5 0
-7 -4 -4 -10z"/>
<path d="M8407 3594 c3 -8 11 -14 19 -14 21 0 17 17 -5 23 -14 3 -18 1 -14 -9z"/>
<path d="M8330 3556 c0 -10 28 -13 41 -5 10 6 7 9 -13 9 -16 0 -28 -2 -28 -4z"/>
<path d="M1740 3539 c0 -5 11 -9 25 -9 14 0 25 2 25 4 0 2 -11 6 -25 8 -14 3
-25 1 -25 -3z"/>
<path d="M1700 3504 c0 -3 5 -14 10 -25 8 -14 17 -18 35 -13 19 5 25 2 25 -10
0 -20 5 -20 30 2 l21 17 -23 6 c-13 3 -22 11 -20 17 1 7 -5 12 -14 12 -8 0
-12 -4 -9 -10 3 -5 2 -10 -4 -10 -5 0 -13 5 -16 10 -7 11 -35 14 -35 4z"/>
<path d="M2220 2840 c-8 -5 -12 -11 -9 -14 2 -3 11 -1 19 4 8 5 12 11 9 14 -2
3 -11 1 -19 -4z"/>
<path d="M2815 2290 c-8 -13 9 -20 24 -11 10 6 9 10 -3 14 -8 3 -18 2 -21 -3z"/>
<path d="M3460 1850 c0 -5 5 -10 10 -10 6 0 10 5 10 10 0 6 -4 10 -10 10 -5 0
-10 -4 -10 -10z"/>
<path d="M3390 1796 c0 -9 5 -16 10 -16 6 0 10 4 10 9 0 6 -4 13 -10 16 -5 3
-10 -1 -10 -9z"/>
<path d="M6600 1780 c0 -5 7 -10 15 -10 8 0 15 5 15 10 0 6 -7 10 -15 10 -8 0
-15 -4 -15 -10z"/>
<path d="M5885 1570 c-3 -5 -1 -10 4 -10 6 0 11 5 11 10 0 6 -2 10 -4 10 -3 0
-8 -4 -11 -10z"/>
<path d="M6010 1560 c-13 -9 -13 -10 0 -10 8 0 22 5 30 10 13 9 13 10 0 10 -8
0 -22 -5 -30 -10z"/>
<path d="M5980 1526 c0 -14 29 -31 38 -22 2 3 2 12 -1 21 -8 19 -37 20 -37 1z"/>
<path d="M5847 1515 c-7 -17 8 -38 31 -42 6 -2 12 2 12 8 0 5 4 8 9 4 5 -3 12
-1 16 5 3 5 1 10 -5 10 -6 0 -9 4 -5 9 3 5 1 12 -5 16 -5 3 -10 -1 -10 -9 0
-21 -17 -20 -28 0 -8 15 -10 15 -15 -1z"/>
<path d="M8294 3355 c-17 -13 -17 -14 -2 -15 9 0 20 5 23 11 11 17 0 20 -21 4z"/>
<path d="M8034 2971 c0 -15 3 -17 13 -9 7 6 10 14 7 19 -9 15 -20 10 -20 -10z"/>
<path d="M7975 2949 c-17 -7 -16 -8 8 -8 28 -1 37 -16 15 -24 -8 -3 -6 -7 7
-12 11 -3 28 -11 37 -16 26 -13 41 -11 34 6 -3 8 -1 15 4 15 6 0 10 4 10 10 0
6 -9 6 -26 0 -16 -6 -23 -6 -19 0 9 15 -47 39 -70 29z"/>
<path d="M7866 2815 c-4 -13 -2 -14 14 -5 23 13 26 20 6 20 -8 0 -16 -7 -20
-15z"/>
<path d="M7825 2780 c-3 -6 1 -7 9 -4 18 7 21 14 7 14 -6 0 -13 -4 -16 -10z"/>
<path d="M7915 2780 c4 -6 11 -8 16 -5 14 9 11 15 -7 15 -8 0 -12 -5 -9 -10z"/>
<path d="M7815 2650 c-3 -5 1 -10 10 -10 9 0 13 5 10 10 -3 6 -8 10 -10 10 -2
0 -7 -4 -10 -10z"/>
<path d="M7719 2611 c11 -15 18 -31 14 -35 -3 -3 -1 -6 5 -6 15 0 15 1 -4 38
-8 18 -20 32 -25 32 -6 0 -1 -13 10 -29z"/>
<path d="M7590 2470 c0 -5 5 -10 11 -10 5 0 7 5 4 10 -3 6 -8 10 -11 10 -2 0
-4 -4 -4 -10z"/>
<path d="M7206 2099 c-11 -10 -14 -19 -8 -19 7 0 15 0 19 -1 4 0 10 9 15 20 9
26 -1 26 -26 0z"/>
<path d="M7000 2001 c0 -6 5 -13 10 -16 6 -3 10 1 10 9 0 9 -4 16 -10 16 -5 0
-10 -4 -10 -9z"/>
</g>
</svg>
